<svg width="437" height="403" viewBox="0 0 437 403" fill="none" xmlns="http://www.w3.org/2000/svg">
<path d="M162.454 333.994H164.827V325.767C164.827 322.573 164.764 320.255 164.62 317.826L164.708 317.802C165.656 319.889 166.962 322.087 168.308 324.23L174.417 333.994H176.933V314.744H174.592V322.828C174.592 325.799 174.648 328.14 174.879 330.713L174.823 330.768C173.875 328.769 172.76 326.738 171.366 324.485L165.194 314.744H162.454V333.994Z" fill="#87B2FF"/>
<path d="M188.856 332.282C184.938 332.282 182.684 328.769 182.684 324.397C182.684 320.088 184.882 316.456 188.88 316.456C193.109 316.456 195.021 320.455 195.021 324.397C195.021 328.594 192.91 332.282 188.856 332.282ZM188.713 334.305C193.563 334.305 197.649 330.737 197.649 324.341C197.649 318.774 194.535 314.433 189.055 314.433C183.743 314.433 180.056 318.575 180.056 324.485C180.056 330.227 183.48 334.305 188.713 334.305Z" fill="#87B2FF"/>
<path d="M210.842 332.027V316.831C211.503 316.719 212.474 316.576 213.757 316.576C219.013 316.576 221.586 319.459 221.554 323.999C221.554 329.199 218.671 332.162 213.359 332.162C212.387 332.162 211.471 332.138 210.842 332.027ZM208.333 333.938C209.615 334.082 211.105 334.169 212.873 334.169C216.616 334.169 219.587 333.198 221.387 331.398C223.187 329.598 224.158 327.057 224.158 323.911C224.158 320.797 223.155 318.575 221.442 316.998C219.754 315.429 217.213 314.601 213.645 314.601C211.678 314.601 209.878 314.776 208.333 314.999V333.938Z" fill="#87B2FF"/>
<path d="M230.932 325.998L232.819 320.431C233.186 319.26 233.504 318.089 233.759 316.942H233.847C234.134 318.057 234.412 319.196 234.842 320.455L236.73 325.998H230.932ZM225.851 333.994H228.447L230.414 327.941H237.24L239.302 333.994H241.955L235.384 314.744H232.389L225.851 333.994Z" fill="#87B2FF"/>
<path d="M248.37 333.994H250.878V316.863H256.764V314.744H242.508V316.863H248.37V333.994Z" fill="#87B2FF"/>
<path d="M263.527 325.998L265.414 320.431C265.781 319.26 266.099 318.089 266.354 316.942H266.442C266.728 318.057 267.007 319.196 267.437 320.455L269.325 325.998H263.527ZM258.445 333.994H261.042L263.009 327.941H269.834L271.897 333.994H274.549L267.979 314.744H264.984L258.445 333.994Z" fill="#87B2FF"/>
<mask id="mask0_511_2931" style="mask-type:luminance" maskUnits="userSpaceOnUse" x="98" y="0" width="241" height="301">
<path d="M98 0H339V300.02H98V0Z" fill="white"/>
</mask>
<g mask="url(#mask0_511_2931)">
<path d="M275.06 35.0434C291.347 35.0434 304.571 48.2669 304.571 64.5536V203.497C304.571 219.784 293 228.324 278.749 222.556C264.498 216.788 254.305 223.951 256.002 238.541C257.698 253.131 245.852 264.977 229.565 264.977H161.938C145.651 264.977 132.428 251.754 132.428 235.467V64.5536C132.428 48.2669 145.651 35.0434 161.938 35.0434H275.06Z" stroke="#87B2FF" stroke-width="5.28"/>
<path d="M275.06 35.0434C291.347 35.0434 304.571 48.2669 304.571 64.5536V203.497C304.571 219.784 293 228.324 278.749 222.556C264.498 216.788 254.305 223.951 256.002 238.541C257.698 253.131 245.852 264.977 229.565 264.977H161.938C145.651 264.977 132.428 251.754 132.428 235.467V64.5536C132.428 48.2669 145.651 35.0434 161.938 35.0434H275.06Z" fill="#87B1FF" fill-opacity="0.2"/>
<path d="M275.06 35.0434C291.347 35.0434 304.571 48.2669 304.571 64.5536V203.497C304.571 219.784 293 228.324 278.749 222.556C264.498 216.788 254.305 223.951 256.002 238.541C257.698 253.131 245.852 264.977 229.565 264.977H161.938C145.651 264.977 132.428 251.754 132.428 235.467V64.5536C132.428 48.2669 145.651 35.0434 161.938 35.0434H275.06Z" stroke="#87B2FF" stroke-width="5.28"/>
<path d="M130.519 238.208C117.829 234.905 108.451 223.362 108.451 209.645V38.7322C108.451 22.4455 121.675 9.22195 137.961 9.22195H251.084C265.732 9.22195 277.902 19.9182 280.203 33.9208" stroke="#87B2FF" stroke-width="5.28"/>
<path d="M304.57 205.034V214.487C304.57 219.704 300.221 227.322 294.865 231.488L261.711 257.274C256.355 261.441 246.496 264.823 239.71 264.823H221.266" stroke="#87B2FF" stroke-width="5.28"/>
<path d="M205.145 168.861C205.145 174.563 209.67 179.089 215.281 179.089C220.984 179.089 225.509 174.563 225.509 168.861C225.509 163.25 220.984 158.634 215.281 158.634C209.67 158.634 205.145 163.25 205.145 168.861ZM205.416 122.43C205.416 128.947 206.955 138.903 209.489 150.578C210.213 153.837 211.48 155.285 215.281 155.285C219.173 155.285 220.44 153.837 221.165 150.578C223.699 138.903 225.237 128.947 225.237 122.43C225.237 115.823 222.432 111.75 215.281 111.75C208.222 111.75 205.416 115.823 205.416 122.43Z" fill="#5C78AA"/>
</g>
<path d="M181.954 203.992C179.646 203.992 177.773 205.865 177.773 208.172C177.773 210.483 179.646 212.354 181.954 212.354C187.062 212.354 191.625 215.206 193.864 219.805C194.59 221.288 196.076 222.153 197.624 222.153C198.241 222.153 198.865 222.016 199.453 221.729C201.53 220.718 202.393 218.217 201.38 216.14C197.731 208.647 190.283 203.992 181.954 203.992Z" fill="#70D5FF" fill-opacity="0.5"/>
<path d="M226.93 261.414L212.998 247.48C217.123 241.679 219.573 234.607 219.573 226.961C219.573 207.365 203.63 191.422 184.033 191.422C164.436 191.422 148.495 207.365 148.495 226.961C148.495 246.557 164.436 262.499 184.033 262.499C192.22 262.499 199.745 259.691 205.761 255.023L219.539 268.802C220.559 269.822 221.899 270.334 223.235 270.334C224.573 270.334 225.91 269.824 226.93 268.802C228.972 266.764 228.972 263.455 226.93 261.414ZM156.859 226.963C156.859 211.977 169.052 199.786 184.036 199.786C199.02 199.786 211.213 211.977 211.213 226.963C211.213 233.197 209.082 238.932 205.536 243.523C204.365 245.039 203.047 246.438 201.586 247.677C196.846 251.699 190.725 254.14 184.036 254.14C169.05 254.138 156.859 241.947 156.859 226.963Z" fill="#70D5FF"/>
<path d="M184.127 198.278C200.102 198.278 213.073 211.249 213.073 227.224C213.073 243.199 200.102 256.17 184.127 256.17C168.151 256.17 155.181 243.199 155.181 227.224C155.181 211.249 168.151 198.278 184.127 198.278Z" fill="#70D5FF" fill-opacity="0.34"/>
<path d="M3.33613 361.88V368.968C3.33613 369.811 3.55479 370.445 3.99213 370.872C4.44013 371.299 5.05879 371.512 5.84813 371.512C6.64813 371.512 7.26679 371.299 7.70413 370.872C8.15213 370.445 8.37613 369.811 8.37613 368.968V361.88H10.2001V368.936C10.2001 369.843 10.0028 370.611 9.60813 371.24C9.21346 371.869 8.68546 372.339 8.02413 372.648C7.36279 372.957 6.63213 373.112 5.83213 373.112C5.03213 373.112 4.30146 372.957 3.64013 372.648C2.98946 372.339 2.47213 371.869 2.08813 371.24C1.70413 370.611 1.51213 369.843 1.51213 368.936V361.88H3.33613ZM17.023 364.04C17.7163 364.04 18.335 364.184 18.879 364.472C19.4337 364.76 19.8657 365.187 20.175 365.752C20.4843 366.317 20.639 367 20.639 367.8V373H18.831V368.072C18.831 367.283 18.6337 366.68 18.239 366.264C17.8443 365.837 17.3057 365.624 16.623 365.624C15.9403 365.624 15.3963 365.837 14.991 366.264C14.5963 366.68 14.399 367.283 14.399 368.072V373H12.575V364.184H14.399V365.192C14.6977 364.829 15.0763 364.547 15.535 364.344C16.0043 364.141 16.5003 364.04 17.023 364.04ZM25.0936 365.672V370.552C25.0936 370.883 25.1683 371.123 25.3176 371.272C25.4776 371.411 25.7443 371.48 26.1176 371.48H27.2376V373H25.7976C24.9763 373 24.347 372.808 23.9096 372.424C23.4723 372.04 23.2536 371.416 23.2536 370.552V365.672H22.2136V364.184H23.2536V361.992H25.0936V364.184H27.2376V365.672H25.0936ZM36.9028 364.184V373H35.0788V371.96C34.7908 372.323 34.4121 372.611 33.9428 372.824C33.4841 373.027 32.9934 373.128 32.4708 373.128C31.7774 373.128 31.1534 372.984 30.5988 372.696C30.0548 372.408 29.6228 371.981 29.3028 371.416C28.9934 370.851 28.8388 370.168 28.8388 369.368V364.184H30.6468V369.096C30.6468 369.885 30.8441 370.493 31.2388 370.92C31.6334 371.336 32.1721 371.544 32.8548 371.544C33.5374 371.544 34.0761 371.336 34.4708 370.92C34.8761 370.493 35.0788 369.885 35.0788 369.096V364.184H36.9028ZM42.7974 368.6L46.8614 373H44.3974L41.1334 369.208V373H39.3094V361.16H41.1334V368.04L44.3334 364.184H46.8614L42.7974 368.6ZM62.997 364.04C63.6903 364.04 64.309 364.184 64.853 364.472C65.4077 364.76 65.8397 365.187 66.149 365.752C66.469 366.317 66.629 367 66.629 367.8V373H64.821V368.072C64.821 367.283 64.6237 366.68 64.229 366.264C63.8343 365.837 63.2957 365.624 62.613 365.624C61.9303 365.624 61.3863 365.837 60.981 366.264C60.5863 366.68 60.389 367.283 60.389 368.072V373H58.581V368.072C58.581 367.283 58.3837 366.68 57.989 366.264C57.5943 365.837 57.0557 365.624 56.373 365.624C55.6903 365.624 55.1463 365.837 54.741 366.264C54.3463 366.68 54.149 367.283 54.149 368.072V373H52.325V364.184H54.149V365.192C54.4477 364.829 54.8263 364.547 55.285 364.344C55.7437 364.141 56.2343 364.04 56.757 364.04C57.461 364.04 58.0903 364.189 58.645 364.488C59.1997 364.787 59.6263 365.219 59.925 365.784C60.1917 365.251 60.6077 364.829 61.173 364.52C61.7383 364.2 62.3463 364.04 62.997 364.04ZM77.03 368.376C77.03 368.707 77.0087 369.005 76.966 369.272H70.23C70.2833 369.976 70.5447 370.541 71.014 370.968C71.4833 371.395 72.0593 371.608 72.742 371.608C73.7233 371.608 74.4167 371.197 74.822 370.376H76.79C76.5233 371.187 76.038 371.853 75.334 372.376C74.6407 372.888 73.7767 373.144 72.742 373.144C71.8993 373.144 71.142 372.957 70.47 372.584C69.8087 372.2 69.286 371.667 68.902 370.984C68.5287 370.291 68.342 369.491 68.342 368.584C68.342 367.677 68.5233 366.883 68.886 366.2C69.2593 365.507 69.7767 364.973 70.438 364.6C71.11 364.227 71.878 364.04 72.742 364.04C73.574 364.04 74.3153 364.221 74.966 364.584C75.6167 364.947 76.1233 365.459 76.486 366.12C76.8487 366.771 77.03 367.523 77.03 368.376ZM75.126 367.8C75.1153 367.128 74.8753 366.589 74.406 366.184C73.9367 365.779 73.3553 365.576 72.662 365.576C72.0327 365.576 71.494 365.779 71.046 366.184C70.598 366.579 70.3313 367.117 70.246 367.8H75.126ZM80.649 361.16V373H78.825V361.16H80.649ZM83.9718 363.016C83.6411 363.016 83.3638 362.904 83.1398 362.68C82.9158 362.456 82.8038 362.179 82.8038 361.848C82.8038 361.517 82.9158 361.24 83.1398 361.016C83.3638 360.792 83.6411 360.68 83.9718 360.68C84.2918 360.68 84.5638 360.792 84.7878 361.016C85.0118 361.24 85.1238 361.517 85.1238 361.848C85.1238 362.179 85.0118 362.456 84.7878 362.68C84.5638 362.904 84.2918 363.016 83.9718 363.016ZM84.8678 364.184V373H83.0438V364.184H84.8678ZM91.8225 364.04C92.4945 364.04 93.0918 364.184 93.6145 364.472C94.1478 364.76 94.5638 365.187 94.8625 365.752C95.1718 366.317 95.3265 367 95.3265 367.8V373H93.5185V368.072C93.5185 367.283 93.3212 366.68 92.9265 366.264C92.5318 365.837 91.9932 365.624 91.3105 365.624C90.6278 365.624 90.0838 365.837 89.6785 366.264C89.2838 366.68 89.0865 367.283 89.0865 368.072V373H87.2625V361.16H89.0865V365.208C89.3958 364.835 89.7852 364.547 90.2545 364.344C90.7345 364.141 91.2572 364.04 91.8225 364.04ZM97.0451 368.552C97.0451 367.667 97.2265 366.883 97.5891 366.2C97.9625 365.517 98.4638 364.989 99.0931 364.616C99.7331 364.232 100.437 364.04 101.205 364.04C101.898 364.04 102.501 364.179 103.013 364.456C103.536 364.723 103.952 365.059 104.261 365.464V364.184H106.101V373H104.261V371.688C103.952 372.104 103.53 372.451 102.997 372.728C102.464 373.005 101.856 373.144 101.173 373.144C100.416 373.144 99.7225 372.952 99.0931 372.568C98.4638 372.173 97.9625 371.629 97.5891 370.936C97.2265 370.232 97.0451 369.437 97.0451 368.552ZM104.261 368.584C104.261 367.976 104.133 367.448 103.877 367C103.632 366.552 103.306 366.211 102.901 365.976C102.496 365.741 102.058 365.624 101.589 365.624C101.12 365.624 100.682 365.741 100.277 365.976C99.8718 366.2 99.5411 366.536 99.2851 366.984C99.0398 367.421 98.9171 367.944 98.9171 368.552C98.9171 369.16 99.0398 369.693 99.2851 370.152C99.5411 370.611 99.8718 370.963 100.277 371.208C100.693 371.443 101.13 371.56 101.589 371.56C102.058 371.56 102.496 371.443 102.901 371.208C103.306 370.973 103.632 370.632 103.877 370.184C104.133 369.725 104.261 369.192 104.261 368.584ZM110.625 365.672V370.552C110.625 370.883 110.7 371.123 110.849 371.272C111.009 371.411 111.276 371.48 111.649 371.48H112.769V373H111.329C110.508 373 109.878 372.808 109.441 372.424C109.004 372.04 108.785 371.416 108.785 370.552V365.672H107.745V364.184H108.785V361.992H110.625V364.184H112.769V365.672H110.625ZM126.395 361.88C127.579 361.88 128.613 362.109 129.499 362.568C130.395 363.016 131.083 363.667 131.562 364.52C132.053 365.363 132.299 366.349 132.299 367.48C132.299 368.611 132.053 369.592 131.562 370.424C131.083 371.256 130.395 371.896 129.499 372.344C128.613 372.781 127.579 373 126.395 373H122.763V361.88H126.395ZM126.395 371.512C127.696 371.512 128.693 371.16 129.387 370.456C130.08 369.752 130.427 368.76 130.427 367.48C130.427 366.189 130.08 365.181 129.387 364.456C128.693 363.731 127.696 363.368 126.395 363.368H124.587V371.512H126.395ZM133.498 368.552C133.498 367.667 133.68 366.883 134.042 366.2C134.416 365.517 134.917 364.989 135.546 364.616C136.186 364.232 136.89 364.04 137.658 364.04C138.352 364.04 138.954 364.179 139.466 364.456C139.989 364.723 140.405 365.059 140.714 365.464V364.184H142.554V373H140.714V371.688C140.405 372.104 139.984 372.451 139.45 372.728C138.917 373.005 138.309 373.144 137.626 373.144C136.869 373.144 136.176 372.952 135.546 372.568C134.917 372.173 134.416 371.629 134.042 370.936C133.68 370.232 133.498 369.437 133.498 368.552ZM140.714 368.584C140.714 367.976 140.586 367.448 140.33 367C140.085 366.552 139.76 366.211 139.354 365.976C138.949 365.741 138.512 365.624 138.042 365.624C137.573 365.624 137.136 365.741 136.73 365.976C136.325 366.2 135.994 366.536 135.738 366.984C135.493 367.421 135.37 367.944 135.37 368.552C135.37 369.16 135.493 369.693 135.738 370.152C135.994 370.611 136.325 370.963 136.73 371.208C137.146 371.443 137.584 371.56 138.042 371.56C138.512 371.56 138.949 371.443 139.354 371.208C139.76 370.973 140.085 370.632 140.33 370.184C140.586 369.725 140.714 369.192 140.714 368.584ZM147.078 365.672V370.552C147.078 370.883 147.153 371.123 147.302 371.272C147.462 371.411 147.729 371.48 148.102 371.48H149.222V373H147.782C146.961 373 146.331 372.808 145.894 372.424C145.457 372.04 145.238 371.416 145.238 370.552V365.672H144.198V364.184H145.238V361.992H147.078V364.184H149.222V365.672H147.078ZM150.295 368.552C150.295 367.667 150.476 366.883 150.839 366.2C151.212 365.517 151.714 364.989 152.343 364.616C152.983 364.232 153.687 364.04 154.455 364.04C155.148 364.04 155.751 364.179 156.263 364.456C156.786 364.723 157.202 365.059 157.511 365.464V364.184H159.351V373H157.511V371.688C157.202 372.104 156.78 372.451 156.247 372.728C155.714 373.005 155.106 373.144 154.423 373.144C153.666 373.144 152.972 372.952 152.343 372.568C151.714 372.173 151.212 371.629 150.839 370.936C150.476 370.232 150.295 369.437 150.295 368.552ZM157.511 368.584C157.511 367.976 157.383 367.448 157.127 367C156.882 366.552 156.556 366.211 156.151 365.976C155.746 365.741 155.308 365.624 154.839 365.624C154.37 365.624 153.932 365.741 153.527 365.976C153.122 366.2 152.791 366.536 152.535 366.984C152.29 367.421 152.167 367.944 152.167 368.552C152.167 369.16 152.29 369.693 152.535 370.152C152.791 370.611 153.122 370.963 153.527 371.208C153.943 371.443 154.38 371.56 154.839 371.56C155.308 371.56 155.746 371.443 156.151 371.208C156.556 370.973 156.882 370.632 157.127 370.184C157.383 369.725 157.511 369.192 157.511 368.584ZM165.295 368.552C165.295 367.667 165.476 366.883 165.839 366.2C166.212 365.517 166.714 364.989 167.343 364.616C167.983 364.232 168.687 364.04 169.455 364.04C170.148 364.04 170.751 364.179 171.263 364.456C171.786 364.723 172.202 365.059 172.511 365.464V364.184H174.351V373H172.511V371.688C172.202 372.104 171.78 372.451 171.247 372.728C170.714 373.005 170.106 373.144 169.423 373.144C168.666 373.144 167.972 372.952 167.343 372.568C166.714 372.173 166.212 371.629 165.839 370.936C165.476 370.232 165.295 369.437 165.295 368.552ZM172.511 368.584C172.511 367.976 172.383 367.448 172.127 367C171.882 366.552 171.556 366.211 171.151 365.976C170.746 365.741 170.308 365.624 169.839 365.624C169.37 365.624 168.932 365.741 168.527 365.976C168.122 366.2 167.791 366.536 167.535 366.984C167.29 367.421 167.167 367.944 167.167 368.552C167.167 369.16 167.29 369.693 167.535 370.152C167.791 370.611 168.122 370.963 168.527 371.208C168.943 371.443 169.38 371.56 169.839 371.56C170.308 371.56 170.746 371.443 171.151 371.208C171.556 370.973 171.882 370.632 172.127 370.184C172.383 369.725 172.511 369.192 172.511 368.584ZM180.235 368.6L184.299 373H181.835L178.571 369.208V373H176.747V361.16H178.571V368.04L181.771 364.184H184.299L180.235 368.6ZM193.59 364.184V373H191.766V371.96C191.478 372.323 191.1 372.611 190.63 372.824C190.172 373.027 189.681 373.128 189.158 373.128C188.465 373.128 187.841 372.984 187.286 372.696C186.742 372.408 186.31 371.981 185.99 371.416C185.681 370.851 185.526 370.168 185.526 369.368V364.184H187.334V369.096C187.334 369.885 187.532 370.493 187.926 370.92C188.321 371.336 188.86 371.544 189.542 371.544C190.225 371.544 190.764 371.336 191.158 370.92C191.564 370.493 191.766 369.885 191.766 369.096V364.184H193.59ZM200.445 364.04C201.138 364.04 201.757 364.184 202.301 364.472C202.856 364.76 203.288 365.187 203.597 365.752C203.906 366.317 204.061 367 204.061 367.8V373H202.253V368.072C202.253 367.283 202.056 366.68 201.661 366.264C201.266 365.837 200.728 365.624 200.045 365.624C199.362 365.624 198.818 365.837 198.413 366.264C198.018 366.68 197.821 367.283 197.821 368.072V373H195.997V364.184H197.821V365.192C198.12 364.829 198.498 364.547 198.957 364.344C199.426 364.141 199.922 364.04 200.445 364.04ZM218.592 365.08C218.304 364.525 217.904 364.109 217.392 363.832C216.88 363.544 216.288 363.4 215.616 363.4C214.88 363.4 214.224 363.565 213.648 363.896C213.072 364.227 212.618 364.696 212.288 365.304C211.968 365.912 211.808 366.616 211.808 367.416C211.808 368.216 211.968 368.925 212.288 369.544C212.618 370.152 213.072 370.621 213.648 370.952C214.224 371.283 214.88 371.448 215.616 371.448C216.608 371.448 217.413 371.171 218.032 370.616C218.65 370.061 219.029 369.309 219.168 368.36H214.992V366.904H221.12V368.328C221.002 369.192 220.693 369.987 220.192 370.712C219.701 371.437 219.056 372.019 218.256 372.456C217.466 372.883 216.586 373.096 215.616 373.096C214.57 373.096 213.616 372.856 212.752 372.376C211.888 371.885 211.2 371.208 210.688 370.344C210.186 369.48 209.936 368.504 209.936 367.416C209.936 366.328 210.186 365.352 210.688 364.488C211.2 363.624 211.888 362.952 212.752 362.472C213.626 361.981 214.581 361.736 215.616 361.736C216.8 361.736 217.85 362.029 218.768 362.616C219.696 363.192 220.368 364.013 220.784 365.08H218.592ZM230.903 364.184V373H229.079V371.96C228.791 372.323 228.412 372.611 227.943 372.824C227.484 373.027 226.993 373.128 226.471 373.128C225.777 373.128 225.153 372.984 224.599 372.696C224.055 372.408 223.623 371.981 223.303 371.416C222.993 370.851 222.839 370.168 222.839 369.368V364.184H224.647V369.096C224.647 369.885 224.844 370.493 225.239 370.92C225.633 371.336 226.172 371.544 226.855 371.544C227.537 371.544 228.076 371.336 228.471 370.92C228.876 370.493 229.079 369.885 229.079 369.096V364.184H230.903ZM235.133 365.464C235.4 365.016 235.752 364.669 236.189 364.424C236.637 364.168 237.165 364.04 237.773 364.04V365.928H237.309C236.595 365.928 236.051 366.109 235.677 366.472C235.315 366.835 235.133 367.464 235.133 368.36V373H233.309V364.184H235.133V365.464ZM247.434 364.184V373H245.61V371.96C245.322 372.323 244.943 372.611 244.474 372.824C244.015 373.027 243.525 373.128 243.002 373.128C242.309 373.128 241.685 372.984 241.13 372.696C240.586 372.408 240.154 371.981 239.834 371.416C239.525 370.851 239.37 370.168 239.37 369.368V364.184H241.178V369.096C241.178 369.885 241.375 370.493 241.77 370.92C242.165 371.336 242.703 371.544 243.386 371.544C244.069 371.544 244.607 371.336 245.002 370.92C245.407 370.493 245.61 369.885 245.61 369.096V364.184H247.434ZM251.841 370.808L249.905 375.224H248.721L249.857 370.808H251.841ZM259.415 365.48C259.724 365.075 260.145 364.733 260.679 364.456C261.212 364.179 261.815 364.04 262.487 364.04C263.255 364.04 263.953 364.232 264.583 364.616C265.223 364.989 265.724 365.517 266.087 366.2C266.449 366.883 266.631 367.667 266.631 368.552C266.631 369.437 266.449 370.232 266.087 370.936C265.724 371.629 265.223 372.173 264.583 372.568C263.953 372.952 263.255 373.144 262.487 373.144C261.815 373.144 261.217 373.011 260.695 372.744C260.172 372.467 259.745 372.125 259.415 371.72V377.192H257.591V364.184H259.415V365.48ZM264.775 368.552C264.775 367.944 264.647 367.421 264.391 366.984C264.145 366.536 263.815 366.2 263.399 365.976C262.993 365.741 262.556 365.624 262.087 365.624C261.628 365.624 261.191 365.741 260.775 365.976C260.369 366.211 260.039 366.552 259.783 367C259.537 367.448 259.415 367.976 259.415 368.584C259.415 369.192 259.537 369.725 259.783 370.184C260.039 370.632 260.369 370.973 260.775 371.208C261.191 371.443 261.628 371.56 262.087 371.56C262.556 371.56 262.993 371.443 263.399 371.208C263.815 370.963 264.145 370.611 264.391 370.152C264.647 369.693 264.775 369.16 264.775 368.552ZM269.362 363.016C269.032 363.016 268.754 362.904 268.53 362.68C268.306 362.456 268.194 362.179 268.194 361.848C268.194 361.517 268.306 361.24 268.53 361.016C268.754 360.792 269.032 360.68 269.362 360.68C269.682 360.68 269.954 360.792 270.178 361.016C270.402 361.24 270.514 361.517 270.514 361.848C270.514 362.179 270.402 362.456 270.178 362.68C269.954 362.904 269.682 363.016 269.362 363.016ZM270.258 364.184V373H268.434V364.184H270.258ZM274.477 361.16V373H272.653V361.16H274.477ZM277.8 363.016C277.469 363.016 277.192 362.904 276.968 362.68C276.744 362.456 276.632 362.179 276.632 361.848C276.632 361.517 276.744 361.24 276.968 361.016C277.192 360.792 277.469 360.68 277.8 360.68C278.12 360.68 278.392 360.792 278.616 361.016C278.84 361.24 278.952 361.517 278.952 361.848C278.952 362.179 278.84 362.456 278.616 362.68C278.392 362.904 278.12 363.016 277.8 363.016ZM278.696 364.184V373H276.872V364.184H278.696ZM285.651 364.04C286.323 364.04 286.92 364.184 287.443 364.472C287.976 364.76 288.392 365.187 288.691 365.752C289 366.317 289.155 367 289.155 367.8V373H287.347V368.072C287.347 367.283 287.149 366.68 286.755 366.264C286.36 365.837 285.821 365.624 285.139 365.624C284.456 365.624 283.912 365.837 283.507 366.264C283.112 366.68 282.915 367.283 282.915 368.072V373H281.091V361.16H282.915V365.208C283.224 364.835 283.613 364.547 284.083 364.344C284.563 364.141 285.085 364.04 285.651 364.04ZM295.03 368.552C295.03 367.667 295.211 366.883 295.574 366.2C295.947 365.517 296.448 364.989 297.078 364.616C297.718 364.232 298.427 364.04 299.206 364.04C299.782 364.04 300.347 364.168 300.902 364.424C301.467 364.669 301.915 365 302.246 365.416V361.16H304.086V373H302.246V371.672C301.947 372.099 301.531 372.451 300.998 372.728C300.475 373.005 299.872 373.144 299.19 373.144C298.422 373.144 297.718 372.952 297.078 372.568C296.448 372.173 295.947 371.629 295.574 370.936C295.211 370.232 295.03 369.437 295.03 368.552ZM302.246 368.584C302.246 367.976 302.118 367.448 301.862 367C301.616 366.552 301.291 366.211 300.886 365.976C300.48 365.741 300.043 365.624 299.574 365.624C299.104 365.624 298.667 365.741 298.262 365.976C297.856 366.2 297.526 366.536 297.27 366.984C297.024 367.421 296.902 367.944 296.902 368.552C296.902 369.16 297.024 369.693 297.27 370.152C297.526 370.611 297.856 370.963 298.262 371.208C298.678 371.443 299.115 371.56 299.574 371.56C300.043 371.56 300.48 371.443 300.886 371.208C301.291 370.973 301.616 370.632 301.862 370.184C302.118 369.725 302.246 369.192 302.246 368.584ZM308.305 365.464C308.572 365.016 308.924 364.669 309.361 364.424C309.809 364.168 310.337 364.04 310.945 364.04V365.928H310.481C309.767 365.928 309.223 366.109 308.849 366.472C308.487 366.835 308.305 367.464 308.305 368.36V373H306.481V364.184H308.305V365.464ZM316.446 373.144C315.614 373.144 314.862 372.957 314.19 372.584C313.518 372.2 312.99 371.667 312.606 370.984C312.222 370.291 312.03 369.491 312.03 368.584C312.03 367.688 312.227 366.893 312.622 366.2C313.017 365.507 313.555 364.973 314.238 364.6C314.921 364.227 315.683 364.04 316.526 364.04C317.369 364.04 318.131 364.227 318.814 364.6C319.497 364.973 320.035 365.507 320.43 366.2C320.825 366.893 321.022 367.688 321.022 368.584C321.022 369.48 320.819 370.275 320.414 370.968C320.009 371.661 319.454 372.2 318.75 372.584C318.057 372.957 317.289 373.144 316.446 373.144ZM316.446 371.56C316.915 371.56 317.353 371.448 317.758 371.224C318.174 371 318.51 370.664 318.766 370.216C319.022 369.768 319.15 369.224 319.15 368.584C319.15 367.944 319.027 367.405 318.782 366.968C318.537 366.52 318.211 366.184 317.806 365.96C317.401 365.736 316.963 365.624 316.494 365.624C316.025 365.624 315.587 365.736 315.182 365.96C314.787 366.184 314.473 366.52 314.238 366.968C314.003 367.405 313.886 367.944 313.886 368.584C313.886 369.533 314.126 370.269 314.606 370.792C315.097 371.304 315.71 371.56 316.446 371.56ZM324.649 365.48C324.958 365.075 325.38 364.733 325.913 364.456C326.446 364.179 327.049 364.04 327.721 364.04C328.489 364.04 329.188 364.232 329.817 364.616C330.457 364.989 330.958 365.517 331.321 366.2C331.684 366.883 331.865 367.667 331.865 368.552C331.865 369.437 331.684 370.232 331.321 370.936C330.958 371.629 330.457 372.173 329.817 372.568C329.188 372.952 328.489 373.144 327.721 373.144C327.049 373.144 326.452 373.011 325.929 372.744C325.406 372.467 324.98 372.125 324.649 371.72V377.192H322.825V364.184H324.649V365.48ZM330.009 368.552C330.009 367.944 329.881 367.421 329.625 366.984C329.38 366.536 329.049 366.2 328.633 365.976C328.228 365.741 327.79 365.624 327.321 365.624C326.862 365.624 326.425 365.741 326.009 365.976C325.604 366.211 325.273 366.552 325.017 367C324.772 367.448 324.649 367.976 324.649 368.584C324.649 369.192 324.772 369.725 325.017 370.184C325.273 370.632 325.604 370.973 326.009 371.208C326.425 371.443 326.862 371.56 327.321 371.56C327.79 371.56 328.228 371.443 328.633 371.208C329.049 370.963 329.38 370.611 329.625 370.152C329.881 369.693 330.009 369.16 330.009 368.552ZM333.061 368.552C333.061 367.667 333.242 366.883 333.605 366.2C333.978 365.517 334.479 364.989 335.109 364.616C335.749 364.232 336.458 364.04 337.237 364.04C337.813 364.04 338.378 364.168 338.933 364.424C339.498 364.669 339.946 365 340.277 365.416V361.16H342.117V373H340.277V371.672C339.978 372.099 339.562 372.451 339.029 372.728C338.506 373.005 337.903 373.144 337.221 373.144C336.453 373.144 335.749 372.952 335.109 372.568C334.479 372.173 333.978 371.629 333.605 370.936C333.242 370.232 333.061 369.437 333.061 368.552ZM340.277 368.584C340.277 367.976 340.149 367.448 339.893 367C339.647 366.552 339.322 366.211 338.917 365.976C338.511 365.741 338.074 365.624 337.605 365.624C337.135 365.624 336.698 365.741 336.293 365.976C335.887 366.2 335.557 366.536 335.301 366.984C335.055 367.421 334.933 367.944 334.933 368.552C334.933 369.16 335.055 369.693 335.301 370.152C335.557 370.611 335.887 370.963 336.293 371.208C336.709 371.443 337.146 371.56 337.605 371.56C338.074 371.56 338.511 371.443 338.917 371.208C339.322 370.973 339.647 370.632 339.893 370.184C340.149 369.725 340.277 369.192 340.277 368.584ZM348.337 373.144C347.505 373.144 346.753 372.957 346.081 372.584C345.409 372.2 344.881 371.667 344.497 370.984C344.113 370.291 343.921 369.491 343.921 368.584C343.921 367.688 344.118 366.893 344.513 366.2C344.907 365.507 345.446 364.973 346.129 364.6C346.811 364.227 347.574 364.04 348.417 364.04C349.259 364.04 350.022 364.227 350.705 364.6C351.387 364.973 351.926 365.507 352.321 366.2C352.715 366.893 352.913 367.688 352.913 368.584C352.913 369.48 352.71 370.275 352.305 370.968C351.899 371.661 351.345 372.2 350.641 372.584C349.947 372.957 349.179 373.144 348.337 373.144ZM348.337 371.56C348.806 371.56 349.243 371.448 349.649 371.224C350.065 371 350.401 370.664 350.657 370.216C350.913 369.768 351.041 369.224 351.041 368.584C351.041 367.944 350.918 367.405 350.673 366.968C350.427 366.52 350.102 366.184 349.697 365.96C349.291 365.736 348.854 365.624 348.385 365.624C347.915 365.624 347.478 365.736 347.073 365.96C346.678 366.184 346.363 366.52 346.129 366.968C345.894 367.405 345.777 367.944 345.777 368.584C345.777 369.533 346.017 370.269 346.497 370.792C346.987 371.304 347.601 371.56 348.337 371.56ZM366.556 364.184L363.82 373H361.9L360.124 366.488L358.348 373H356.428L353.676 364.184H355.532L357.372 371.272L359.244 364.184H361.148L362.94 371.24L364.764 364.184H366.556ZM372.367 364.04C373.06 364.04 373.679 364.184 374.223 364.472C374.777 364.76 375.209 365.187 375.519 365.752C375.828 366.317 375.983 367 375.983 367.8V373H374.175V368.072C374.175 367.283 373.977 366.68 373.583 366.264C373.188 365.837 372.649 365.624 371.967 365.624C371.284 365.624 370.74 365.837 370.335 366.264C369.94 366.68 369.743 367.283 369.743 368.072V373H367.919V364.184H369.743V365.192C370.041 364.829 370.42 364.547 370.879 364.344C371.348 364.141 371.844 364.04 372.367 364.04ZM381.858 368.552C381.858 367.667 382.039 366.883 382.402 366.2C382.775 365.517 383.276 364.989 383.906 364.616C384.546 364.232 385.255 364.04 386.034 364.04C386.61 364.04 387.175 364.168 387.73 364.424C388.295 364.669 388.743 365 389.074 365.416V361.16H390.914V373H389.074V371.672C388.775 372.099 388.359 372.451 387.826 372.728C387.303 373.005 386.7 373.144 386.018 373.144C385.25 373.144 384.546 372.952 383.906 372.568C383.276 372.173 382.775 371.629 382.402 370.936C382.039 370.232 381.858 369.437 381.858 368.552ZM389.074 368.584C389.074 367.976 388.946 367.448 388.69 367C388.444 366.552 388.119 366.211 387.714 365.976C387.308 365.741 386.871 365.624 386.402 365.624C385.932 365.624 385.495 365.741 385.09 365.976C384.684 366.2 384.354 366.536 384.098 366.984C383.852 367.421 383.73 367.944 383.73 368.552C383.73 369.16 383.852 369.693 384.098 370.152C384.354 370.611 384.684 370.963 385.09 371.208C385.506 371.443 385.943 371.56 386.402 371.56C386.871 371.56 387.308 371.443 387.714 371.208C388.119 370.973 388.444 370.632 388.69 370.184C388.946 369.725 389.074 369.192 389.074 368.584ZM394.237 363.016C393.907 363.016 393.629 362.904 393.405 362.68C393.181 362.456 393.069 362.179 393.069 361.848C393.069 361.517 393.181 361.24 393.405 361.016C393.629 360.792 393.907 360.68 394.237 360.68C394.557 360.68 394.829 360.792 395.053 361.016C395.277 361.24 395.389 361.517 395.389 361.848C395.389 362.179 395.277 362.456 395.053 362.68C394.829 362.904 394.557 363.016 394.237 363.016ZM395.133 364.184V373H393.309V364.184H395.133ZM396.92 368.552C396.92 367.667 397.101 366.883 397.464 366.2C397.837 365.517 398.339 364.989 398.968 364.616C399.608 364.232 400.312 364.04 401.08 364.04C401.773 364.04 402.376 364.179 402.888 364.456C403.411 364.723 403.827 365.059 404.136 365.464V364.184H405.976V373H404.136V371.688C403.827 372.104 403.405 372.451 402.872 372.728C402.339 373.005 401.731 373.144 401.048 373.144C400.291 373.144 399.597 372.952 398.968 372.568C398.339 372.173 397.837 371.629 397.464 370.936C397.101 370.232 396.92 369.437 396.92 368.552ZM404.136 368.584C404.136 367.976 404.008 367.448 403.752 367C403.507 366.552 403.181 366.211 402.776 365.976C402.371 365.741 401.933 365.624 401.464 365.624C400.995 365.624 400.557 365.741 400.152 365.976C399.747 366.2 399.416 366.536 399.16 366.984C398.915 367.421 398.792 367.944 398.792 368.552C398.792 369.16 398.915 369.693 399.16 370.152C399.416 370.611 399.747 370.963 400.152 371.208C400.568 371.443 401.005 371.56 401.464 371.56C401.933 371.56 402.371 371.443 402.776 371.208C403.181 370.973 403.507 370.632 403.752 370.184C404.008 369.725 404.136 369.192 404.136 368.584ZM410.5 365.672V370.552C410.5 370.883 410.575 371.123 410.724 371.272C410.884 371.411 411.151 371.48 411.524 371.48H412.644V373H411.204C410.383 373 409.753 372.808 409.316 372.424C408.879 372.04 408.66 371.416 408.66 370.552V365.672H407.62V364.184H408.66V361.992H410.5V364.184H412.644V365.672H410.5ZM413.717 368.552C413.717 367.667 413.898 366.883 414.261 366.2C414.634 365.517 415.136 364.989 415.765 364.616C416.405 364.232 417.109 364.04 417.877 364.04C418.57 364.04 419.173 364.179 419.685 364.456C420.208 364.723 420.624 365.059 420.933 365.464V364.184H422.773V373H420.933V371.688C420.624 372.104 420.202 372.451 419.669 372.728C419.136 373.005 418.528 373.144 417.845 373.144C417.088 373.144 416.394 372.952 415.765 372.568C415.136 372.173 414.634 371.629 414.261 370.936C413.898 370.232 413.717 369.437 413.717 368.552ZM420.933 368.584C420.933 367.976 420.805 367.448 420.549 367C420.304 366.552 419.978 366.211 419.573 365.976C419.168 365.741 418.73 365.624 418.261 365.624C417.792 365.624 417.354 365.741 416.949 365.976C416.544 366.2 416.213 366.536 415.957 366.984C415.712 367.421 415.589 367.944 415.589 368.552C415.589 369.16 415.712 369.693 415.957 370.152C416.213 370.611 416.544 370.963 416.949 371.208C417.365 371.443 417.802 371.56 418.261 371.56C418.73 371.56 419.168 371.443 419.573 371.208C419.978 370.973 420.304 370.632 420.549 370.184C420.805 369.725 420.933 369.192 420.933 368.584ZM428.369 373.144C427.675 373.144 427.051 373.021 426.497 372.776C425.953 372.52 425.521 372.179 425.201 371.752C424.881 371.315 424.71 370.829 424.689 370.296H426.577C426.609 370.669 426.785 370.984 427.105 371.24C427.435 371.485 427.846 371.608 428.337 371.608C428.849 371.608 429.243 371.512 429.521 371.32C429.809 371.117 429.953 370.861 429.953 370.552C429.953 370.221 429.793 369.976 429.473 369.816C429.163 369.656 428.667 369.48 427.985 369.288C427.323 369.107 426.785 368.931 426.369 368.76C425.953 368.589 425.59 368.328 425.281 367.976C424.982 367.624 424.833 367.16 424.833 366.584C424.833 366.115 424.971 365.688 425.249 365.304C425.526 364.909 425.921 364.6 426.433 364.376C426.955 364.152 427.553 364.04 428.225 364.04C429.227 364.04 430.033 364.296 430.641 364.808C431.259 365.309 431.59 365.997 431.633 366.872H429.809C429.777 366.477 429.617 366.163 429.329 365.928C429.041 365.693 428.651 365.576 428.161 365.576C427.681 365.576 427.313 365.667 427.057 365.848C426.801 366.029 426.673 366.269 426.673 366.568C426.673 366.803 426.758 367 426.929 367.16C427.099 367.32 427.307 367.448 427.553 367.544C427.798 367.629 428.161 367.741 428.641 367.88C429.281 368.051 429.803 368.227 430.209 368.408C430.625 368.579 430.982 368.835 431.281 369.176C431.579 369.517 431.734 369.971 431.745 370.536C431.745 371.037 431.606 371.485 431.329 371.88C431.051 372.275 430.657 372.584 430.145 372.808C429.643 373.032 429.051 373.144 428.369 373.144ZM58.6021 389.48C58.9115 389.075 59.3328 388.733 59.8661 388.456C60.3995 388.179 61.0021 388.04 61.6741 388.04C62.4421 388.04 63.1408 388.232 63.7701 388.616C64.4101 388.989 64.9115 389.517 65.2741 390.2C65.6368 390.883 65.8181 391.667 65.8181 392.552C65.8181 393.437 65.6368 394.232 65.2741 394.936C64.9115 395.629 64.4101 396.173 63.7701 396.568C63.1408 396.952 62.4421 397.144 61.6741 397.144C61.0021 397.144 60.4048 397.011 59.8821 396.744C59.3595 396.467 58.9328 396.125 58.6021 395.72V401.192H56.7781V388.184H58.6021V389.48ZM63.9621 392.552C63.9621 391.944 63.8341 391.421 63.5781 390.984C63.3328 390.536 63.0021 390.2 62.5861 389.976C62.1808 389.741 61.7435 389.624 61.2741 389.624C60.8155 389.624 60.3781 389.741 59.9621 389.976C59.5568 390.211 59.2261 390.552 58.9701 391C58.7248 391.448 58.6021 391.976 58.6021 392.584C58.6021 393.192 58.7248 393.725 58.9701 394.184C59.2261 394.632 59.5568 394.973 59.9621 395.208C60.3781 395.443 60.8155 395.56 61.2741 395.56C61.7435 395.56 62.1808 395.443 62.5861 395.208C63.0021 394.963 63.3328 394.611 63.5781 394.152C63.8341 393.693 63.9621 393.16 63.9621 392.552ZM67.0139 392.552C67.0139 391.667 67.1952 390.883 67.5579 390.2C67.9312 389.517 68.4325 388.989 69.0619 388.616C69.7019 388.232 70.4059 388.04 71.1739 388.04C71.8672 388.04 72.4699 388.179 72.9819 388.456C73.5045 388.723 73.9205 389.059 74.2299 389.464V388.184H76.0699V397H74.2299V395.688C73.9205 396.104 73.4992 396.451 72.9659 396.728C72.4325 397.005 71.8245 397.144 71.1419 397.144C70.3845 397.144 69.6912 396.952 69.0619 396.568C68.4325 396.173 67.9312 395.629 67.5579 394.936C67.1952 394.232 67.0139 393.437 67.0139 392.552ZM74.2299 392.584C74.2299 391.976 74.1019 391.448 73.8459 391C73.6005 390.552 73.2752 390.211 72.8699 389.976C72.4645 389.741 72.0272 389.624 71.5579 389.624C71.0885 389.624 70.6512 389.741 70.2459 389.976C69.8405 390.2 69.5099 390.536 69.2539 390.984C69.0085 391.421 68.8859 391.944 68.8859 392.552C68.8859 393.16 69.0085 393.693 69.2539 394.152C69.5099 394.611 69.8405 394.963 70.2459 395.208C70.6619 395.443 71.0992 395.56 71.5579 395.56C72.0272 395.56 72.4645 395.443 72.8699 395.208C73.2752 394.973 73.6005 394.632 73.8459 394.184C74.1019 393.725 74.2299 393.192 74.2299 392.584ZM81.6656 397.144C80.9723 397.144 80.3483 397.021 79.7936 396.776C79.2496 396.52 78.8176 396.179 78.4976 395.752C78.1776 395.315 78.007 394.829 77.9856 394.296H79.8736C79.9056 394.669 80.0816 394.984 80.4016 395.24C80.7323 395.485 81.143 395.608 81.6336 395.608C82.1456 395.608 82.5403 395.512 82.8176 395.32C83.1056 395.117 83.2496 394.861 83.2496 394.552C83.2496 394.221 83.0896 393.976 82.7696 393.816C82.4603 393.656 81.9643 393.48 81.2816 393.288C80.6203 393.107 80.0816 392.931 79.6656 392.76C79.2496 392.589 78.887 392.328 78.5776 391.976C78.279 391.624 78.1296 391.16 78.1296 390.584C78.1296 390.115 78.2683 389.688 78.5456 389.304C78.823 388.909 79.2176 388.6 79.7296 388.376C80.2523 388.152 80.8496 388.04 81.5216 388.04C82.5243 388.04 83.3296 388.296 83.9376 388.808C84.5563 389.309 84.887 389.997 84.9296 390.872H83.1056C83.0736 390.477 82.9136 390.163 82.6256 389.928C82.3376 389.693 81.9483 389.576 81.4576 389.576C80.9776 389.576 80.6096 389.667 80.3536 389.848C80.0976 390.029 79.9696 390.269 79.9696 390.568C79.9696 390.803 80.055 391 80.2256 391.16C80.3963 391.32 80.6043 391.448 80.8496 391.544C81.095 391.629 81.4576 391.741 81.9376 391.88C82.5776 392.051 83.1003 392.227 83.5056 392.408C83.9216 392.579 84.279 392.835 84.5776 393.176C84.8763 393.517 85.031 393.971 85.0416 394.536C85.0416 395.037 84.903 395.485 84.6256 395.88C84.3483 396.275 83.9536 396.584 83.4416 396.808C82.9403 397.032 82.3483 397.144 81.6656 397.144ZM89.1405 389.672V394.552C89.1405 394.883 89.2152 395.123 89.3645 395.272C89.5245 395.411 89.7912 395.48 90.1645 395.48H91.2845V397H89.8445C89.0232 397 88.3938 396.808 87.9565 396.424C87.5192 396.04 87.3005 395.416 87.3005 394.552V389.672H86.2605V388.184H87.3005V385.992H89.1405V388.184H91.2845V389.672H89.1405ZM93.8936 387.016C93.563 387.016 93.2856 386.904 93.0616 386.68C92.8376 386.456 92.7256 386.179 92.7256 385.848C92.7256 385.517 92.8376 385.24 93.0616 385.016C93.2856 384.792 93.563 384.68 93.8936 384.68C94.2136 384.68 94.4856 384.792 94.7096 385.016C94.9336 385.24 95.0456 385.517 95.0456 385.848C95.0456 386.179 94.9336 386.456 94.7096 386.68C94.4856 386.904 94.2136 387.016 93.8936 387.016ZM94.7896 388.184V397H92.9656V388.184H94.7896ZM100.672 392.6L104.736 397H102.272L99.0084 393.208V397H97.1844V385.16H99.0084V392.04L102.208 388.184H104.736L100.672 392.6ZM105.436 392.552C105.436 391.667 105.617 390.883 105.98 390.2C106.353 389.517 106.854 388.989 107.484 388.616C108.124 388.232 108.828 388.04 109.596 388.04C110.289 388.04 110.892 388.179 111.404 388.456C111.926 388.723 112.342 389.059 112.652 389.464V388.184H114.492V397H112.652V395.688C112.342 396.104 111.921 396.451 111.388 396.728C110.854 397.005 110.246 397.144 109.564 397.144C108.806 397.144 108.113 396.952 107.484 396.568C106.854 396.173 106.353 395.629 105.98 394.936C105.617 394.232 105.436 393.437 105.436 392.552ZM112.652 392.584C112.652 391.976 112.524 391.448 112.268 391C112.022 390.552 111.697 390.211 111.292 389.976C110.886 389.741 110.449 389.624 109.98 389.624C109.51 389.624 109.073 389.741 108.668 389.976C108.262 390.2 107.932 390.536 107.676 390.984C107.43 391.421 107.308 391.944 107.308 392.552C107.308 393.16 107.43 393.693 107.676 394.152C107.932 394.611 108.262 394.963 108.668 395.208C109.084 395.443 109.521 395.56 109.98 395.56C110.449 395.56 110.886 395.443 111.292 395.208C111.697 394.973 112.022 394.632 112.268 394.184C112.524 393.725 112.652 393.192 112.652 392.584ZM121.336 388.04C122.029 388.04 122.648 388.184 123.192 388.472C123.746 388.76 124.178 389.187 124.488 389.752C124.797 390.317 124.952 391 124.952 391.8V397H123.144V392.072C123.144 391.283 122.946 390.68 122.552 390.264C122.157 389.837 121.618 389.624 120.936 389.624C120.253 389.624 119.709 389.837 119.304 390.264C118.909 390.68 118.712 391.283 118.712 392.072V397H116.888V388.184H118.712V389.192C119.01 388.829 119.389 388.547 119.848 388.344C120.317 388.141 120.813 388.04 121.336 388.04ZM134.634 397.144C133.941 397.144 133.317 397.021 132.762 396.776C132.218 396.52 131.786 396.179 131.466 395.752C131.146 395.315 130.976 394.829 130.954 394.296H132.842C132.874 394.669 133.05 394.984 133.37 395.24C133.701 395.485 134.112 395.608 134.602 395.608C135.114 395.608 135.509 395.512 135.786 395.32C136.074 395.117 136.218 394.861 136.218 394.552C136.218 394.221 136.058 393.976 135.738 393.816C135.429 393.656 134.933 393.48 134.25 393.288C133.589 393.107 133.05 392.931 132.634 392.76C132.218 392.589 131.856 392.328 131.546 391.976C131.248 391.624 131.098 391.16 131.098 390.584C131.098 390.115 131.237 389.688 131.514 389.304C131.792 388.909 132.186 388.6 132.698 388.376C133.221 388.152 133.818 388.04 134.49 388.04C135.493 388.04 136.298 388.296 136.906 388.808C137.525 389.309 137.856 389.997 137.898 390.872H136.074C136.042 390.477 135.882 390.163 135.594 389.928C135.306 389.693 134.917 389.576 134.426 389.576C133.946 389.576 133.578 389.667 133.322 389.848C133.066 390.029 132.938 390.269 132.938 390.568C132.938 390.803 133.024 391 133.194 391.16C133.365 391.32 133.573 391.448 133.818 391.544C134.064 391.629 134.426 391.741 134.906 391.88C135.546 392.051 136.069 392.227 136.474 392.408C136.89 392.579 137.248 392.835 137.546 393.176C137.845 393.517 138 393.971 138.01 394.536C138.01 395.037 137.872 395.485 137.594 395.88C137.317 396.275 136.922 396.584 136.41 396.808C135.909 397.032 135.317 397.144 134.634 397.144ZM148.061 392.376C148.061 392.707 148.04 393.005 147.997 393.272H141.261C141.315 393.976 141.576 394.541 142.045 394.968C142.515 395.395 143.091 395.608 143.773 395.608C144.755 395.608 145.448 395.197 145.853 394.376H147.821C147.555 395.187 147.069 395.853 146.365 396.376C145.672 396.888 144.808 397.144 143.773 397.144C142.931 397.144 142.173 396.957 141.501 396.584C140.84 396.2 140.317 395.667 139.933 394.984C139.56 394.291 139.373 393.491 139.373 392.584C139.373 391.677 139.555 390.883 139.917 390.2C140.291 389.507 140.808 388.973 141.469 388.6C142.141 388.227 142.909 388.04 143.773 388.04C144.605 388.04 145.347 388.221 145.997 388.584C146.648 388.947 147.155 389.459 147.517 390.12C147.88 390.771 148.061 391.523 148.061 392.376ZM146.157 391.8C146.147 391.128 145.907 390.589 145.437 390.184C144.968 389.779 144.387 389.576 143.693 389.576C143.064 389.576 142.525 389.779 142.077 390.184C141.629 390.579 141.363 391.117 141.277 391.8H146.157ZM160.528 388.04C161.222 388.04 161.84 388.184 162.384 388.472C162.939 388.76 163.371 389.187 163.68 389.752C164 390.317 164.16 391 164.16 391.8V397H162.352V392.072C162.352 391.283 162.155 390.68 161.76 390.264C161.366 389.837 160.827 389.624 160.144 389.624C159.462 389.624 158.918 389.837 158.512 390.264C158.118 390.68 157.92 391.283 157.92 392.072V397H156.112V392.072C156.112 391.283 155.915 390.68 155.52 390.264C155.126 389.837 154.587 389.624 153.904 389.624C153.222 389.624 152.678 389.837 152.272 390.264C151.878 390.68 151.68 391.283 151.68 392.072V397H149.856V388.184H151.68V389.192C151.979 388.829 152.358 388.547 152.816 388.344C153.275 388.141 153.766 388.04 154.288 388.04C154.992 388.04 155.622 388.189 156.176 388.488C156.731 388.787 157.158 389.219 157.456 389.784C157.723 389.251 158.139 388.829 158.704 388.52C159.27 388.2 159.878 388.04 160.528 388.04ZM174.465 388.184V397H172.641V395.96C172.353 396.323 171.975 396.611 171.505 396.824C171.047 397.027 170.556 397.128 170.033 397.128C169.34 397.128 168.716 396.984 168.161 396.696C167.617 396.408 167.185 395.981 166.865 395.416C166.556 394.851 166.401 394.168 166.401 393.368V388.184H168.209V393.096C168.209 393.885 168.407 394.493 168.801 394.92C169.196 395.336 169.735 395.544 170.417 395.544C171.1 395.544 171.639 395.336 172.033 394.92C172.439 394.493 172.641 393.885 172.641 393.096V388.184H174.465ZM176.264 392.552C176.264 391.667 176.445 390.883 176.808 390.2C177.181 389.517 177.683 388.989 178.312 388.616C178.952 388.232 179.656 388.04 180.424 388.04C181.117 388.04 181.72 388.179 182.232 388.456C182.755 388.723 183.171 389.059 183.48 389.464V388.184H185.32V397H183.48V395.688C183.171 396.104 182.749 396.451 182.216 396.728C181.683 397.005 181.075 397.144 180.392 397.144C179.635 397.144 178.941 396.952 178.312 396.568C177.683 396.173 177.181 395.629 176.808 394.936C176.445 394.232 176.264 393.437 176.264 392.552ZM183.48 392.584C183.48 391.976 183.352 391.448 183.096 391C182.851 390.552 182.525 390.211 182.12 389.976C181.715 389.741 181.277 389.624 180.808 389.624C180.339 389.624 179.901 389.741 179.496 389.976C179.091 390.2 178.76 390.536 178.504 390.984C178.259 391.421 178.136 391.944 178.136 392.552C178.136 393.16 178.259 393.693 178.504 394.152C178.76 394.611 179.091 394.963 179.496 395.208C179.912 395.443 180.349 395.56 180.808 395.56C181.277 395.56 181.715 395.443 182.12 395.208C182.525 394.973 182.851 394.632 183.096 394.184C183.352 393.725 183.48 393.192 183.48 392.584ZM191.264 392.552C191.264 391.667 191.445 390.883 191.808 390.2C192.181 389.517 192.683 388.989 193.312 388.616C193.952 388.232 194.661 388.04 195.44 388.04C196.016 388.04 196.581 388.168 197.136 388.424C197.701 388.669 198.149 389 198.48 389.416V385.16H200.32V397H198.48V395.672C198.181 396.099 197.765 396.451 197.232 396.728C196.709 397.005 196.107 397.144 195.424 397.144C194.656 397.144 193.952 396.952 193.312 396.568C192.683 396.173 192.181 395.629 191.808 394.936C191.445 394.232 191.264 393.437 191.264 392.552ZM198.48 392.584C198.48 391.976 198.352 391.448 198.096 391C197.851 390.552 197.525 390.211 197.12 389.976C196.715 389.741 196.277 389.624 195.808 389.624C195.339 389.624 194.901 389.741 194.496 389.976C194.091 390.2 193.76 390.536 193.504 390.984C193.259 391.421 193.136 391.944 193.136 392.552C193.136 393.16 193.259 393.693 193.504 394.152C193.76 394.611 194.091 394.963 194.496 395.208C194.912 395.443 195.349 395.56 195.808 395.56C196.277 395.56 196.715 395.443 197.12 395.208C197.525 394.973 197.851 394.632 198.096 394.184C198.352 393.725 198.48 393.192 198.48 392.584ZM204.54 389.464C204.806 389.016 205.158 388.669 205.596 388.424C206.044 388.168 206.572 388.04 207.18 388.04V389.928H206.716C206.001 389.928 205.457 390.109 205.084 390.472C204.721 390.835 204.54 391.464 204.54 392.36V397H202.716V388.184H204.54V389.464ZM212.68 397.144C211.848 397.144 211.096 396.957 210.424 396.584C209.752 396.2 209.224 395.667 208.84 394.984C208.456 394.291 208.264 393.491 208.264 392.584C208.264 391.688 208.462 390.893 208.856 390.2C209.251 389.507 209.79 388.973 210.472 388.6C211.155 388.227 211.918 388.04 212.76 388.04C213.603 388.04 214.366 388.227 215.048 388.6C215.731 388.973 216.27 389.507 216.664 390.2C217.059 390.893 217.256 391.688 217.256 392.584C217.256 393.48 217.054 394.275 216.648 394.968C216.243 395.661 215.688 396.2 214.984 396.584C214.291 396.957 213.523 397.144 212.68 397.144ZM212.68 395.56C213.15 395.56 213.587 395.448 213.992 395.224C214.408 395 214.744 394.664 215 394.216C215.256 393.768 215.384 393.224 215.384 392.584C215.384 391.944 215.262 391.405 215.016 390.968C214.771 390.52 214.446 390.184 214.04 389.96C213.635 389.736 213.198 389.624 212.728 389.624C212.259 389.624 211.822 389.736 211.416 389.96C211.022 390.184 210.707 390.52 210.472 390.968C210.238 391.405 210.12 391.944 210.12 392.584C210.12 393.533 210.36 394.269 210.84 394.792C211.331 395.304 211.944 395.56 212.68 395.56ZM220.883 389.48C221.193 389.075 221.614 388.733 222.147 388.456C222.681 388.179 223.283 388.04 223.955 388.04C224.723 388.04 225.422 388.232 226.051 388.616C226.691 388.989 227.193 389.517 227.555 390.2C227.918 390.883 228.099 391.667 228.099 392.552C228.099 393.437 227.918 394.232 227.555 394.936C227.193 395.629 226.691 396.173 226.051 396.568C225.422 396.952 224.723 397.144 223.955 397.144C223.283 397.144 222.686 397.011 222.163 396.744C221.641 396.467 221.214 396.125 220.883 395.72V401.192H219.059V388.184H220.883V389.48ZM226.243 392.552C226.243 391.944 226.115 391.421 225.859 390.984C225.614 390.536 225.283 390.2 224.867 389.976C224.462 389.741 224.025 389.624 223.555 389.624C223.097 389.624 222.659 389.741 222.243 389.976C221.838 390.211 221.507 390.552 221.251 391C221.006 391.448 220.883 391.976 220.883 392.584C220.883 393.192 221.006 393.725 221.251 394.184C221.507 394.632 221.838 394.973 222.243 395.208C222.659 395.443 223.097 395.56 223.555 395.56C224.025 395.56 224.462 395.443 224.867 395.208C225.283 394.963 225.614 394.611 225.859 394.152C226.115 393.693 226.243 393.16 226.243 392.552ZM229.295 392.552C229.295 391.667 229.476 390.883 229.839 390.2C230.212 389.517 230.714 388.989 231.343 388.616C231.983 388.232 232.692 388.04 233.471 388.04C234.047 388.04 234.612 388.168 235.167 388.424C235.732 388.669 236.18 389 236.511 389.416V385.16H238.351V397H236.511V395.672C236.212 396.099 235.796 396.451 235.263 396.728C234.74 397.005 234.138 397.144 233.455 397.144C232.687 397.144 231.983 396.952 231.343 396.568C230.714 396.173 230.212 395.629 229.839 394.936C229.476 394.232 229.295 393.437 229.295 392.552ZM236.511 392.584C236.511 391.976 236.383 391.448 236.127 391C235.882 390.552 235.556 390.211 235.151 389.976C234.746 389.741 234.308 389.624 233.839 389.624C233.37 389.624 232.932 389.741 232.527 389.976C232.122 390.2 231.791 390.536 231.535 390.984C231.29 391.421 231.167 391.944 231.167 392.552C231.167 393.16 231.29 393.693 231.535 394.152C231.791 394.611 232.122 394.963 232.527 395.208C232.943 395.443 233.38 395.56 233.839 395.56C234.308 395.56 234.746 395.443 235.151 395.208C235.556 394.973 235.882 394.632 236.127 394.184C236.383 393.725 236.511 393.192 236.511 392.584ZM244.571 397.144C243.739 397.144 242.987 396.957 242.315 396.584C241.643 396.2 241.115 395.667 240.731 394.984C240.347 394.291 240.155 393.491 240.155 392.584C240.155 391.688 240.352 390.893 240.747 390.2C241.142 389.507 241.68 388.973 242.363 388.6C243.046 388.227 243.808 388.04 244.651 388.04C245.494 388.04 246.256 388.227 246.939 388.6C247.622 388.973 248.16 389.507 248.555 390.2C248.95 390.893 249.147 391.688 249.147 392.584C249.147 393.48 248.944 394.275 248.539 394.968C248.134 395.661 247.579 396.2 246.875 396.584C246.182 396.957 245.414 397.144 244.571 397.144ZM244.571 395.56C245.04 395.56 245.478 395.448 245.883 395.224C246.299 395 246.635 394.664 246.891 394.216C247.147 393.768 247.275 393.224 247.275 392.584C247.275 391.944 247.152 391.405 246.907 390.968C246.662 390.52 246.336 390.184 245.931 389.96C245.526 389.736 245.088 389.624 244.619 389.624C244.15 389.624 243.712 389.736 243.307 389.96C242.912 390.184 242.598 390.52 242.363 390.968C242.128 391.405 242.011 391.944 242.011 392.584C242.011 393.533 242.251 394.269 242.731 394.792C243.222 395.304 243.835 395.56 244.571 395.56ZM262.79 388.184L260.054 397H258.134L256.358 390.488L254.582 397H252.662L249.91 388.184H251.766L253.606 395.272L255.478 388.184H257.382L259.174 395.24L260.998 388.184H262.79ZM268.601 388.04C269.294 388.04 269.913 388.184 270.457 388.472C271.012 388.76 271.444 389.187 271.753 389.752C272.062 390.317 272.217 391 272.217 391.8V397H270.409V392.072C270.409 391.283 270.212 390.68 269.817 390.264C269.422 389.837 268.884 389.624 268.201 389.624C267.518 389.624 266.974 389.837 266.569 390.264C266.174 390.68 265.977 391.283 265.977 392.072V397H264.153V388.184H265.977V389.192C266.276 388.829 266.654 388.547 267.113 388.344C267.582 388.141 268.078 388.04 268.601 388.04ZM280.828 389.672V394.552C280.828 394.883 280.903 395.123 281.052 395.272C281.212 395.411 281.479 395.48 281.852 395.48H282.972V397H281.532C280.711 397 280.081 396.808 279.644 396.424C279.207 396.04 278.988 395.416 278.988 394.552V389.672H277.948V388.184H278.988V385.992H280.828V388.184H282.972V389.672H280.828ZM285.581 387.016C285.25 387.016 284.973 386.904 284.749 386.68C284.525 386.456 284.413 386.179 284.413 385.848C284.413 385.517 284.525 385.24 284.749 385.016C284.973 384.792 285.25 384.68 285.581 384.68C285.901 384.68 286.173 384.792 286.397 385.016C286.621 385.24 286.733 385.517 286.733 385.848C286.733 386.179 286.621 386.456 286.397 386.68C286.173 386.904 285.901 387.016 285.581 387.016ZM286.477 388.184V397H284.653V388.184H286.477ZM288.264 392.552C288.264 391.667 288.445 390.883 288.808 390.2C289.181 389.517 289.683 388.989 290.312 388.616C290.952 388.232 291.661 388.04 292.44 388.04C293.016 388.04 293.581 388.168 294.136 388.424C294.701 388.669 295.149 389 295.48 389.416V385.16H297.32V397H295.48V395.672C295.181 396.099 294.765 396.451 294.232 396.728C293.709 397.005 293.107 397.144 292.424 397.144C291.656 397.144 290.952 396.952 290.312 396.568C289.683 396.173 289.181 395.629 288.808 394.936C288.445 394.232 288.264 393.437 288.264 392.552ZM295.48 392.584C295.48 391.976 295.352 391.448 295.096 391C294.851 390.552 294.525 390.211 294.12 389.976C293.715 389.741 293.277 389.624 292.808 389.624C292.339 389.624 291.901 389.741 291.496 389.976C291.091 390.2 290.76 390.536 290.504 390.984C290.259 391.421 290.136 391.944 290.136 392.552C290.136 393.16 290.259 393.693 290.504 394.152C290.76 394.611 291.091 394.963 291.496 395.208C291.912 395.443 292.349 395.56 292.808 395.56C293.277 395.56 293.715 395.443 294.12 395.208C294.525 394.973 294.851 394.632 295.096 394.184C295.352 393.725 295.48 393.192 295.48 392.584ZM299.108 392.552C299.108 391.667 299.289 390.883 299.652 390.2C300.025 389.517 300.526 388.989 301.156 388.616C301.796 388.232 302.5 388.04 303.268 388.04C303.961 388.04 304.564 388.179 305.076 388.456C305.598 388.723 306.014 389.059 306.324 389.464V388.184H308.164V397H306.324V395.688C306.014 396.104 305.593 396.451 305.06 396.728C304.526 397.005 303.918 397.144 303.236 397.144C302.478 397.144 301.785 396.952 301.156 396.568C300.526 396.173 300.025 395.629 299.652 394.936C299.289 394.232 299.108 393.437 299.108 392.552ZM306.324 392.584C306.324 391.976 306.196 391.448 305.94 391C305.694 390.552 305.369 390.211 304.964 389.976C304.558 389.741 304.121 389.624 303.652 389.624C303.182 389.624 302.745 389.741 302.34 389.976C301.934 390.2 301.604 390.536 301.348 390.984C301.102 391.421 300.98 391.944 300.98 392.552C300.98 393.16 301.102 393.693 301.348 394.152C301.604 394.611 301.934 394.963 302.34 395.208C302.756 395.443 303.193 395.56 303.652 395.56C304.121 395.56 304.558 395.443 304.964 395.208C305.369 394.973 305.694 394.632 305.94 394.184C306.196 393.725 306.324 393.192 306.324 392.584ZM314.047 392.6L318.111 397H315.647L312.383 393.208V397H310.559V385.16H312.383V392.04L315.583 388.184H318.111L314.047 392.6ZM327.063 392.6L331.127 397H328.663L325.399 393.208V397H323.575V385.16H325.399V392.04L328.599 388.184H331.127L327.063 392.6ZM336.258 397.144C335.426 397.144 334.674 396.957 334.002 396.584C333.33 396.2 332.802 395.667 332.418 394.984C332.034 394.291 331.842 393.491 331.842 392.584C331.842 391.688 332.04 390.893 332.434 390.2C332.829 389.507 333.368 388.973 334.05 388.6C334.733 388.227 335.496 388.04 336.338 388.04C337.181 388.04 337.944 388.227 338.626 388.6C339.309 388.973 339.848 389.507 340.242 390.2C340.637 390.893 340.834 391.688 340.834 392.584C340.834 393.48 340.632 394.275 340.226 394.968C339.821 395.661 339.266 396.2 338.562 396.584C337.869 396.957 337.101 397.144 336.258 397.144ZM336.258 395.56C336.728 395.56 337.165 395.448 337.57 395.224C337.986 395 338.322 394.664 338.578 394.216C338.834 393.768 338.962 393.224 338.962 392.584C338.962 391.944 338.84 391.405 338.594 390.968C338.349 390.52 338.024 390.184 337.618 389.96C337.213 389.736 336.776 389.624 336.306 389.624C335.837 389.624 335.4 389.736 334.994 389.96C334.6 390.184 334.285 390.52 334.05 390.968C333.816 391.405 333.698 391.944 333.698 392.584C333.698 393.533 333.938 394.269 334.418 394.792C334.909 395.304 335.522 395.56 336.258 395.56ZM345.838 397.144C345.144 397.144 344.52 397.021 343.966 396.776C343.422 396.52 342.99 396.179 342.67 395.752C342.35 395.315 342.179 394.829 342.158 394.296H344.046C344.078 394.669 344.254 394.984 344.574 395.24C344.904 395.485 345.315 395.608 345.806 395.608C346.318 395.608 346.712 395.512 346.99 395.32C347.278 395.117 347.422 394.861 347.422 394.552C347.422 394.221 347.262 393.976 346.942 393.816C346.632 393.656 346.136 393.48 345.454 393.288C344.792 393.107 344.254 392.931 343.838 392.76C343.422 392.589 343.059 392.328 342.75 391.976C342.451 391.624 342.302 391.16 342.302 390.584C342.302 390.115 342.44 389.688 342.718 389.304C342.995 388.909 343.39 388.6 343.902 388.376C344.424 388.152 345.022 388.04 345.694 388.04C346.696 388.04 347.502 388.296 348.11 388.808C348.728 389.309 349.059 389.997 349.102 390.872H347.278C347.246 390.477 347.086 390.163 346.798 389.928C346.51 389.693 346.12 389.576 345.63 389.576C345.15 389.576 344.782 389.667 344.526 389.848C344.27 390.029 344.142 390.269 344.142 390.568C344.142 390.803 344.227 391 344.398 391.16C344.568 391.32 344.776 391.448 345.022 391.544C345.267 391.629 345.63 391.741 346.11 391.88C346.75 392.051 347.272 392.227 347.678 392.408C348.094 392.579 348.451 392.835 348.75 393.176C349.048 393.517 349.203 393.971 349.214 394.536C349.214 395.037 349.075 395.485 348.798 395.88C348.52 396.275 348.126 396.584 347.614 396.808C347.112 397.032 346.52 397.144 345.838 397.144ZM355.008 397.144C354.176 397.144 353.424 396.957 352.752 396.584C352.08 396.2 351.552 395.667 351.168 394.984C350.784 394.291 350.592 393.491 350.592 392.584C350.592 391.688 350.79 390.893 351.184 390.2C351.579 389.507 352.118 388.973 352.8 388.6C353.483 388.227 354.246 388.04 355.088 388.04C355.931 388.04 356.694 388.227 357.376 388.6C358.059 388.973 358.598 389.507 358.992 390.2C359.387 390.893 359.584 391.688 359.584 392.584C359.584 393.48 359.382 394.275 358.976 394.968C358.571 395.661 358.016 396.2 357.312 396.584C356.619 396.957 355.851 397.144 355.008 397.144ZM355.008 395.56C355.478 395.56 355.915 395.448 356.32 395.224C356.736 395 357.072 394.664 357.328 394.216C357.584 393.768 357.712 393.224 357.712 392.584C357.712 391.944 357.59 391.405 357.344 390.968C357.099 390.52 356.774 390.184 356.368 389.96C355.963 389.736 355.526 389.624 355.056 389.624C354.587 389.624 354.15 389.736 353.744 389.96C353.35 390.184 353.035 390.52 352.8 390.968C352.566 391.405 352.448 391.944 352.448 392.584C352.448 393.533 352.688 394.269 353.168 394.792C353.659 395.304 354.272 395.56 355.008 395.56ZM365.836 388.04C366.529 388.04 367.148 388.184 367.692 388.472C368.246 388.76 368.678 389.187 368.988 389.752C369.297 390.317 369.452 391 369.452 391.8V397H367.644V392.072C367.644 391.283 367.446 390.68 367.052 390.264C366.657 389.837 366.118 389.624 365.436 389.624C364.753 389.624 364.209 389.837 363.804 390.264C363.409 390.68 363.212 391.283 363.212 392.072V397H361.388V388.184H363.212V389.192C363.51 388.829 363.889 388.547 364.348 388.344C364.817 388.141 365.313 388.04 365.836 388.04ZM375.33 388.04C376.013 388.04 376.615 388.179 377.138 388.456C377.671 388.723 378.087 389.059 378.386 389.464V388.184H380.226V397.144C380.226 397.955 380.055 398.675 379.714 399.304C379.373 399.944 378.877 400.445 378.226 400.808C377.586 401.171 376.818 401.352 375.922 401.352C374.727 401.352 373.735 401.069 372.946 400.504C372.157 399.949 371.709 399.192 371.602 398.232H373.41C373.549 398.691 373.842 399.059 374.29 399.336C374.749 399.624 375.293 399.768 375.922 399.768C376.658 399.768 377.25 399.544 377.698 399.096C378.157 398.648 378.386 397.997 378.386 397.144V395.672C378.077 396.088 377.655 396.44 377.122 396.728C376.599 397.005 376.002 397.144 375.33 397.144C374.562 397.144 373.858 396.952 373.218 396.568C372.589 396.173 372.087 395.629 371.714 394.936C371.351 394.232 371.17 393.437 371.17 392.552C371.17 391.667 371.351 390.883 371.714 390.2C372.087 389.517 372.589 388.989 373.218 388.616C373.858 388.232 374.562 388.04 375.33 388.04ZM378.386 392.584C378.386 391.976 378.258 391.448 378.002 391C377.757 390.552 377.431 390.211 377.026 389.976C376.621 389.741 376.183 389.624 375.714 389.624C375.245 389.624 374.807 389.741 374.402 389.976C373.997 390.2 373.666 390.536 373.41 390.984C373.165 391.421 373.042 391.944 373.042 392.552C373.042 393.16 373.165 393.693 373.41 394.152C373.666 394.611 373.997 394.963 374.402 395.208C374.818 395.443 375.255 395.56 375.714 395.56C376.183 395.56 376.621 395.443 377.026 395.208C377.431 394.973 377.757 394.632 378.002 394.184C378.258 393.725 378.386 393.192 378.386 392.584Z" fill="#87B2FF"/>
</svg>
