<svg width="443" height="403" viewBox="0 0 443 403" fill="none" xmlns="http://www.w3.org/2000/svg">
<path d="M165.454 333.994H167.827V325.767C167.827 322.573 167.764 320.255 167.62 317.826L167.708 317.802C168.656 319.889 169.962 322.087 171.308 324.23L177.417 333.994H179.933V314.744H177.592V322.828C177.592 325.799 177.648 328.14 177.879 330.713L177.823 330.768C176.875 328.769 175.76 326.738 174.366 324.485L168.194 314.744H165.454V333.994Z" fill="#87B2FF"/>
<path d="M191.856 332.282C187.937 332.282 185.683 328.769 185.683 324.397C185.683 320.088 187.882 316.456 191.88 316.456C196.109 316.456 198.02 320.455 198.02 324.397C198.02 328.594 195.91 332.282 191.856 332.282ZM191.712 334.305C196.563 334.305 200.649 330.737 200.649 324.341C200.649 318.774 197.534 314.433 192.055 314.433C186.743 314.433 183.055 318.575 183.055 324.485C183.055 330.227 186.48 334.305 191.712 334.305Z" fill="#87B2FF"/>
<path d="M213.842 332.027V316.831C214.503 316.719 215.475 316.576 216.757 316.576C222.014 316.576 224.586 319.459 224.554 323.999C224.554 329.199 221.671 332.162 216.359 332.162C215.387 332.162 214.471 332.138 213.842 332.027ZM211.333 333.938C212.616 334.082 214.105 334.169 215.873 334.169C219.616 334.169 222.587 333.198 224.387 331.398C226.187 329.598 227.159 327.057 227.159 323.911C227.159 320.797 226.155 318.575 224.443 316.998C222.754 315.429 220.214 314.601 216.646 314.601C214.679 314.601 212.879 314.776 211.333 314.999V333.938Z" fill="#87B2FF"/>
<path d="M233.932 325.998L235.819 320.431C236.186 319.26 236.504 318.089 236.759 316.942H236.847C237.134 318.057 237.412 319.196 237.842 320.455L239.73 325.998H233.932ZM228.851 333.994H231.447L233.414 327.941H240.24L242.302 333.994H244.955L238.384 314.744H235.389L228.851 333.994Z" fill="#87B2FF"/>
<path d="M251.37 333.994H253.879V316.863H259.765V314.744H245.508V316.863H251.37V333.994Z" fill="#87B2FF"/>
<path d="M266.526 325.998L268.414 320.431C268.78 319.26 269.099 318.089 269.353 316.942H269.441C269.728 318.057 270.007 319.196 270.437 320.455L272.324 325.998H266.526ZM261.445 333.994H264.041L266.008 327.941H272.834L274.897 333.994H277.549L270.978 314.744H267.984L261.445 333.994Z" fill="#87B2FF"/>
<mask id="mask0_509_2855" style="mask-type:luminance" maskUnits="userSpaceOnUse" x="101" y="0" width="241" height="301">
<path d="M101 0H342V300.02H101V0Z" fill="white"/>
</mask>
<g mask="url(#mask0_509_2855)">
<path d="M278.061 35.0434C294.348 35.0434 307.571 48.2669 307.571 64.5536V203.497C307.571 219.784 296.001 228.324 281.75 222.556C267.499 216.788 257.306 223.951 259.002 238.541C260.699 253.131 248.853 264.977 232.566 264.977H164.938C148.652 264.977 135.428 251.754 135.428 235.467V64.5536C135.428 48.2669 148.652 35.0434 164.938 35.0434H278.061Z" stroke="#87B2FF" stroke-width="5.28"/>
<path d="M278.061 35.0434C294.348 35.0434 307.571 48.2669 307.571 64.5536V203.497C307.571 219.784 296.001 228.324 281.75 222.556C267.499 216.788 257.306 223.951 259.002 238.541C260.699 253.131 248.853 264.977 232.566 264.977H164.938C148.652 264.977 135.428 251.754 135.428 235.467V64.5536C135.428 48.2669 148.652 35.0434 164.938 35.0434H278.061Z" fill="#87B1FF" fill-opacity="0.2"/>
<path d="M278.061 35.0434C294.348 35.0434 307.571 48.2669 307.571 64.5536V203.497C307.571 219.784 296.001 228.324 281.75 222.556C267.499 216.788 257.306 223.951 259.002 238.541C260.699 253.131 248.853 264.977 232.566 264.977H164.938C148.652 264.977 135.428 251.754 135.428 235.467V64.5536C135.428 48.2669 148.652 35.0434 164.938 35.0434H278.061Z" stroke="#87B2FF" stroke-width="5.28"/>
<path d="M133.519 238.208C120.83 234.905 111.452 223.362 111.452 209.645V38.7322C111.452 22.4455 124.675 9.22195 140.962 9.22195H254.084C268.732 9.22195 280.903 19.9182 283.204 33.9208" stroke="#87B2FF" stroke-width="5.28"/>
<path d="M307.571 205.034V214.487C307.571 219.704 303.222 227.322 297.866 231.488L264.712 257.274C259.356 261.441 249.497 264.823 242.71 264.823H224.267" stroke="#87B2FF" stroke-width="5.28"/>
<path d="M208.145 168.861C208.145 174.563 212.67 179.089 218.282 179.089C223.984 179.089 228.509 174.563 228.509 168.861C228.509 163.25 223.984 158.634 218.282 158.634C212.67 158.634 208.145 163.25 208.145 168.861ZM208.417 122.43C208.417 128.947 209.955 138.903 212.489 150.578C213.214 153.837 214.481 155.285 218.282 155.285C222.174 155.285 223.441 153.837 224.165 150.578C226.699 138.903 228.238 128.947 228.238 122.43C228.238 115.823 225.432 111.75 218.282 111.75C211.222 111.75 208.417 115.823 208.417 122.43Z" fill="#5C78AA"/>
</g>
<path d="M184.954 203.992C182.646 203.992 180.773 205.865 180.773 208.172C180.773 210.483 182.646 212.354 184.954 212.354C190.062 212.354 194.625 215.206 196.864 219.805C197.59 221.288 199.076 222.153 200.624 222.153C201.241 222.153 201.865 222.016 202.453 221.729C204.53 220.718 205.393 218.217 204.38 216.14C200.731 208.647 193.283 203.992 184.954 203.992Z" fill="#70D5FF" fill-opacity="0.5"/>
<path d="M229.93 261.414L215.998 247.48C220.123 241.679 222.573 234.607 222.573 226.961C222.573 207.365 206.63 191.422 187.033 191.422C167.436 191.422 151.495 207.365 151.495 226.961C151.495 246.557 167.436 262.499 187.033 262.499C195.22 262.499 202.745 259.691 208.761 255.023L222.539 268.802C223.559 269.822 224.899 270.334 226.235 270.334C227.573 270.334 228.91 269.824 229.93 268.802C231.972 266.764 231.972 263.455 229.93 261.414ZM159.859 226.963C159.859 211.977 172.052 199.786 187.036 199.786C202.02 199.786 214.213 211.977 214.213 226.963C214.213 233.197 212.082 238.932 208.536 243.523C207.365 245.039 206.047 246.438 204.586 247.677C199.846 251.699 193.725 254.14 187.036 254.14C172.05 254.138 159.859 241.947 159.859 226.963Z" fill="#70D5FF"/>
<path d="M187.127 198.278C203.102 198.278 216.073 211.249 216.073 227.224C216.073 243.199 203.102 256.17 187.127 256.17C171.151 256.17 158.181 243.199 158.181 227.224C158.181 211.249 171.151 198.278 187.127 198.278Z" fill="#70D5FF" fill-opacity="0.34"/>
<path d="M3.133 361.88V368.968C3.133 369.811 3.35167 370.445 3.789 370.872C4.237 371.299 4.85567 371.512 5.645 371.512C6.445 371.512 7.06367 371.299 7.501 370.872C7.949 370.445 8.173 369.811 8.173 368.968V361.88H9.997V368.936C9.997 369.843 9.79967 370.611 9.405 371.24C9.01033 371.869 8.48233 372.339 7.821 372.648C7.15967 372.957 6.429 373.112 5.629 373.112C4.829 373.112 4.09833 372.957 3.437 372.648C2.78633 372.339 2.269 371.869 1.885 371.24C1.501 370.611 1.309 369.843 1.309 368.936V361.88H3.133ZM16.8199 364.04C17.5132 364.04 18.1319 364.184 18.6759 364.472C19.2305 364.76 19.6625 365.187 19.9719 365.752C20.2812 366.317 20.4359 367 20.4359 367.8V373H18.6279V368.072C18.6279 367.283 18.4305 366.68 18.0359 366.264C17.6412 365.837 17.1025 365.624 16.4199 365.624C15.7372 365.624 15.1932 365.837 14.7879 366.264C14.3932 366.68 14.1959 367.283 14.1959 368.072V373H12.3719V364.184H14.1959V365.192C14.4945 364.829 14.8732 364.547 15.3319 364.344C15.8012 364.141 16.2972 364.04 16.8199 364.04ZM24.8905 365.672V370.552C24.8905 370.883 24.9652 371.123 25.1145 371.272C25.2745 371.411 25.5412 371.48 25.9145 371.48H27.0345V373H25.5945C24.7732 373 24.1438 372.808 23.7065 372.424C23.2692 372.04 23.0505 371.416 23.0505 370.552V365.672H22.0105V364.184H23.0505V361.992H24.8905V364.184H27.0345V365.672H24.8905ZM36.6996 364.184V373H34.8756V371.96C34.5876 372.323 34.209 372.611 33.7396 372.824C33.281 373.027 32.7903 373.128 32.2676 373.128C31.5743 373.128 30.9503 372.984 30.3956 372.696C29.8516 372.408 29.4196 371.981 29.0996 371.416C28.7903 370.851 28.6356 370.168 28.6356 369.368V364.184H30.4436V369.096C30.4436 369.885 30.641 370.493 31.0356 370.92C31.4303 371.336 31.969 371.544 32.6516 371.544C33.3343 371.544 33.873 371.336 34.2676 370.92C34.673 370.493 34.8756 369.885 34.8756 369.096V364.184H36.6996ZM42.5943 368.6L46.6583 373H44.1943L40.9303 369.208V373H39.1063V361.16H40.9303V368.04L44.1303 364.184H46.6583L42.5943 368.6ZM62.7939 364.04C63.4872 364.04 64.1059 364.184 64.6499 364.472C65.2045 364.76 65.6365 365.187 65.9459 365.752C66.2659 366.317 66.4259 367 66.4259 367.8V373H64.6179V368.072C64.6179 367.283 64.4205 366.68 64.0259 366.264C63.6312 365.837 63.0925 365.624 62.4099 365.624C61.7272 365.624 61.1832 365.837 60.7779 366.264C60.3832 366.68 60.1859 367.283 60.1859 368.072V373H58.3779V368.072C58.3779 367.283 58.1805 366.68 57.7859 366.264C57.3912 365.837 56.8525 365.624 56.1699 365.624C55.4872 365.624 54.9432 365.837 54.5379 366.264C54.1432 366.68 53.9459 367.283 53.9459 368.072V373H52.1219V364.184H53.9459V365.192C54.2445 364.829 54.6232 364.547 55.0819 364.344C55.5405 364.141 56.0312 364.04 56.5539 364.04C57.2579 364.04 57.8872 364.189 58.4419 364.488C58.9965 364.787 59.4232 365.219 59.7219 365.784C59.9885 365.251 60.4045 364.829 60.9699 364.52C61.5352 364.2 62.1432 364.04 62.7939 364.04ZM76.8269 368.376C76.8269 368.707 76.8055 369.005 76.7629 369.272H70.0269C70.0802 369.976 70.3415 370.541 70.8109 370.968C71.2802 371.395 71.8562 371.608 72.5389 371.608C73.5202 371.608 74.2135 371.197 74.6189 370.376H76.5869C76.3202 371.187 75.8349 371.853 75.1309 372.376C74.4375 372.888 73.5735 373.144 72.5389 373.144C71.6962 373.144 70.9389 372.957 70.2669 372.584C69.6055 372.2 69.0829 371.667 68.6989 370.984C68.3255 370.291 68.1389 369.491 68.1389 368.584C68.1389 367.677 68.3202 366.883 68.6829 366.2C69.0562 365.507 69.5735 364.973 70.2349 364.6C70.9069 364.227 71.6749 364.04 72.5389 364.04C73.3709 364.04 74.1122 364.221 74.7629 364.584C75.4135 364.947 75.9202 365.459 76.2829 366.12C76.6455 366.771 76.8269 367.523 76.8269 368.376ZM74.9229 367.8C74.9122 367.128 74.6722 366.589 74.2029 366.184C73.7335 365.779 73.1522 365.576 72.4589 365.576C71.8295 365.576 71.2909 365.779 70.8429 366.184C70.3949 366.579 70.1282 367.117 70.0429 367.8H74.9229ZM80.4459 361.16V373H78.6219V361.16H80.4459ZM83.7686 363.016C83.438 363.016 83.1606 362.904 82.9366 362.68C82.7126 362.456 82.6006 362.179 82.6006 361.848C82.6006 361.517 82.7126 361.24 82.9366 361.016C83.1606 360.792 83.438 360.68 83.7686 360.68C84.0886 360.68 84.3606 360.792 84.5846 361.016C84.8086 361.24 84.9206 361.517 84.9206 361.848C84.9206 362.179 84.8086 362.456 84.5846 362.68C84.3606 362.904 84.0886 363.016 83.7686 363.016ZM84.6646 364.184V373H82.8406V364.184H84.6646ZM91.6194 364.04C92.2914 364.04 92.8887 364.184 93.4114 364.472C93.9447 364.76 94.3607 365.187 94.6594 365.752C94.9687 366.317 95.1234 367 95.1234 367.8V373H93.3154V368.072C93.3154 367.283 93.118 366.68 92.7234 366.264C92.3287 365.837 91.79 365.624 91.1074 365.624C90.4247 365.624 89.8807 365.837 89.4754 366.264C89.0807 366.68 88.8834 367.283 88.8834 368.072V373H87.0594V361.16H88.8834V365.208C89.1927 364.835 89.582 364.547 90.0514 364.344C90.5314 364.141 91.054 364.04 91.6194 364.04ZM96.842 368.552C96.842 367.667 97.0233 366.883 97.386 366.2C97.7593 365.517 98.2607 364.989 98.89 364.616C99.53 364.232 100.234 364.04 101.002 364.04C101.695 364.04 102.298 364.179 102.81 364.456C103.333 364.723 103.749 365.059 104.058 365.464V364.184H105.898V373H104.058V371.688C103.749 372.104 103.327 372.451 102.794 372.728C102.261 373.005 101.653 373.144 100.97 373.144C100.213 373.144 99.5193 372.952 98.89 372.568C98.2607 372.173 97.7593 371.629 97.386 370.936C97.0233 370.232 96.842 369.437 96.842 368.552ZM104.058 368.584C104.058 367.976 103.93 367.448 103.674 367C103.429 366.552 103.103 366.211 102.698 365.976C102.293 365.741 101.855 365.624 101.386 365.624C100.917 365.624 100.479 365.741 100.074 365.976C99.6687 366.2 99.338 366.536 99.082 366.984C98.8367 367.421 98.714 367.944 98.714 368.552C98.714 369.16 98.8367 369.693 99.082 370.152C99.338 370.611 99.6687 370.963 100.074 371.208C100.49 371.443 100.927 371.56 101.386 371.56C101.855 371.56 102.293 371.443 102.698 371.208C103.103 370.973 103.429 370.632 103.674 370.184C103.93 369.725 104.058 369.192 104.058 368.584ZM110.422 365.672V370.552C110.422 370.883 110.496 371.123 110.646 371.272C110.806 371.411 111.072 371.48 111.446 371.48H112.566V373H111.126C110.304 373 109.675 372.808 109.238 372.424C108.8 372.04 108.582 371.416 108.582 370.552V365.672H107.542V364.184H108.582V361.992H110.422V364.184H112.566V365.672H110.422ZM126.191 361.88C127.375 361.88 128.41 362.109 129.295 362.568C130.191 363.016 130.879 363.667 131.359 364.52C131.85 365.363 132.095 366.349 132.095 367.48C132.095 368.611 131.85 369.592 131.359 370.424C130.879 371.256 130.191 371.896 129.295 372.344C128.41 372.781 127.375 373 126.191 373H122.559V361.88H126.191ZM126.191 371.512C127.493 371.512 128.49 371.16 129.183 370.456C129.877 369.752 130.223 368.76 130.223 367.48C130.223 366.189 129.877 365.181 129.183 364.456C128.49 363.731 127.493 363.368 126.191 363.368H124.383V371.512H126.191ZM133.295 368.552C133.295 367.667 133.476 366.883 133.839 366.2C134.212 365.517 134.714 364.989 135.343 364.616C135.983 364.232 136.687 364.04 137.455 364.04C138.148 364.04 138.751 364.179 139.263 364.456C139.786 364.723 140.202 365.059 140.511 365.464V364.184H142.351V373H140.511V371.688C140.202 372.104 139.78 372.451 139.247 372.728C138.714 373.005 138.106 373.144 137.423 373.144C136.666 373.144 135.972 372.952 135.343 372.568C134.714 372.173 134.212 371.629 133.839 370.936C133.476 370.232 133.295 369.437 133.295 368.552ZM140.511 368.584C140.511 367.976 140.383 367.448 140.127 367C139.882 366.552 139.556 366.211 139.151 365.976C138.746 365.741 138.308 365.624 137.839 365.624C137.37 365.624 136.932 365.741 136.527 365.976C136.122 366.2 135.791 366.536 135.535 366.984C135.29 367.421 135.167 367.944 135.167 368.552C135.167 369.16 135.29 369.693 135.535 370.152C135.791 370.611 136.122 370.963 136.527 371.208C136.943 371.443 137.38 371.56 137.839 371.56C138.308 371.56 138.746 371.443 139.151 371.208C139.556 370.973 139.882 370.632 140.127 370.184C140.383 369.725 140.511 369.192 140.511 368.584ZM146.875 365.672V370.552C146.875 370.883 146.95 371.123 147.099 371.272C147.259 371.411 147.526 371.48 147.899 371.48H149.019V373H147.579C146.758 373 146.128 372.808 145.691 372.424C145.254 372.04 145.035 371.416 145.035 370.552V365.672H143.995V364.184H145.035V361.992H146.875V364.184H149.019V365.672H146.875ZM150.092 368.552C150.092 367.667 150.273 366.883 150.636 366.2C151.009 365.517 151.511 364.989 152.14 364.616C152.78 364.232 153.484 364.04 154.252 364.04C154.945 364.04 155.548 364.179 156.06 364.456C156.583 364.723 156.999 365.059 157.308 365.464V364.184H159.148V373H157.308V371.688C156.999 372.104 156.577 372.451 156.044 372.728C155.511 373.005 154.903 373.144 154.22 373.144C153.463 373.144 152.769 372.952 152.14 372.568C151.511 372.173 151.009 371.629 150.636 370.936C150.273 370.232 150.092 369.437 150.092 368.552ZM157.308 368.584C157.308 367.976 157.18 367.448 156.924 367C156.679 366.552 156.353 366.211 155.948 365.976C155.543 365.741 155.105 365.624 154.636 365.624C154.167 365.624 153.729 365.741 153.324 365.976C152.919 366.2 152.588 366.536 152.332 366.984C152.087 367.421 151.964 367.944 151.964 368.552C151.964 369.16 152.087 369.693 152.332 370.152C152.588 370.611 152.919 370.963 153.324 371.208C153.74 371.443 154.177 371.56 154.636 371.56C155.105 371.56 155.543 371.443 155.948 371.208C156.353 370.973 156.679 370.632 156.924 370.184C157.18 369.725 157.308 369.192 157.308 368.584ZM165.092 368.552C165.092 367.667 165.273 366.883 165.636 366.2C166.009 365.517 166.511 364.989 167.14 364.616C167.78 364.232 168.484 364.04 169.252 364.04C169.945 364.04 170.548 364.179 171.06 364.456C171.583 364.723 171.999 365.059 172.308 365.464V364.184H174.148V373H172.308V371.688C171.999 372.104 171.577 372.451 171.044 372.728C170.511 373.005 169.903 373.144 169.22 373.144C168.463 373.144 167.769 372.952 167.14 372.568C166.511 372.173 166.009 371.629 165.636 370.936C165.273 370.232 165.092 369.437 165.092 368.552ZM172.308 368.584C172.308 367.976 172.18 367.448 171.924 367C171.679 366.552 171.353 366.211 170.948 365.976C170.543 365.741 170.105 365.624 169.636 365.624C169.167 365.624 168.729 365.741 168.324 365.976C167.919 366.2 167.588 366.536 167.332 366.984C167.087 367.421 166.964 367.944 166.964 368.552C166.964 369.16 167.087 369.693 167.332 370.152C167.588 370.611 167.919 370.963 168.324 371.208C168.74 371.443 169.177 371.56 169.636 371.56C170.105 371.56 170.543 371.443 170.948 371.208C171.353 370.973 171.679 370.632 171.924 370.184C172.18 369.725 172.308 369.192 172.308 368.584ZM180.032 368.6L184.096 373H181.632L178.368 369.208V373H176.544V361.16H178.368V368.04L181.568 364.184H184.096L180.032 368.6ZM193.387 364.184V373H191.563V371.96C191.275 372.323 190.896 372.611 190.427 372.824C189.968 373.027 189.478 373.128 188.955 373.128C188.262 373.128 187.638 372.984 187.083 372.696C186.539 372.408 186.107 371.981 185.787 371.416C185.478 370.851 185.323 370.168 185.323 369.368V364.184H187.131V369.096C187.131 369.885 187.328 370.493 187.723 370.92C188.118 371.336 188.656 371.544 189.339 371.544C190.022 371.544 190.56 371.336 190.955 370.92C191.36 370.493 191.563 369.885 191.563 369.096V364.184H193.387ZM200.242 364.04C200.935 364.04 201.554 364.184 202.098 364.472C202.652 364.76 203.084 365.187 203.394 365.752C203.703 366.317 203.858 367 203.858 367.8V373H202.05V368.072C202.05 367.283 201.852 366.68 201.458 366.264C201.063 365.837 200.524 365.624 199.842 365.624C199.159 365.624 198.615 365.837 198.21 366.264C197.815 366.68 197.618 367.283 197.618 368.072V373H195.794V364.184H197.618V365.192C197.916 364.829 198.295 364.547 198.754 364.344C199.223 364.141 199.719 364.04 200.242 364.04ZM222.053 361.88V373H220.229V365.384L216.837 373H215.573L212.165 365.384V373H210.341V361.88H212.309L216.213 370.6L220.101 361.88H222.053ZM232.434 364.184V373H230.61V371.96C230.322 372.323 229.943 372.611 229.474 372.824C229.015 373.027 228.525 373.128 228.002 373.128C227.309 373.128 226.685 372.984 226.13 372.696C225.586 372.408 225.154 371.981 224.834 371.416C224.525 370.851 224.37 370.168 224.37 369.368V364.184H226.178V369.096C226.178 369.885 226.375 370.493 226.77 370.92C227.165 371.336 227.703 371.544 228.386 371.544C229.069 371.544 229.607 371.336 230.002 370.92C230.407 370.493 230.61 369.885 230.61 369.096V364.184H232.434ZM236.665 365.464C236.931 365.016 237.283 364.669 237.721 364.424C238.169 364.168 238.697 364.04 239.305 364.04V365.928H238.841C238.126 365.928 237.582 366.109 237.209 366.472C236.846 366.835 236.665 367.464 236.665 368.36V373H234.841V364.184H236.665V365.464ZM241.909 363.016C241.579 363.016 241.301 362.904 241.077 362.68C240.853 362.456 240.741 362.179 240.741 361.848C240.741 361.517 240.853 361.24 241.077 361.016C241.301 360.792 241.579 360.68 241.909 360.68C242.229 360.68 242.501 360.792 242.725 361.016C242.949 361.24 243.061 361.517 243.061 361.848C243.061 362.179 242.949 362.456 242.725 362.68C242.501 362.904 242.229 363.016 241.909 363.016ZM242.805 364.184V373H240.981V364.184H242.805ZM244.592 368.552C244.592 367.667 244.773 366.883 245.136 366.2C245.509 365.517 246.011 364.989 246.64 364.616C247.28 364.232 247.989 364.04 248.768 364.04C249.344 364.04 249.909 364.168 250.464 364.424C251.029 364.669 251.477 365 251.808 365.416V361.16H253.648V373H251.808V371.672C251.509 372.099 251.093 372.451 250.56 372.728C250.037 373.005 249.435 373.144 248.752 373.144C247.984 373.144 247.28 372.952 246.64 372.568C246.011 372.173 245.509 371.629 245.136 370.936C244.773 370.232 244.592 369.437 244.592 368.552ZM251.808 368.584C251.808 367.976 251.68 367.448 251.424 367C251.179 366.552 250.853 366.211 250.448 365.976C250.043 365.741 249.605 365.624 249.136 365.624C248.667 365.624 248.229 365.741 247.824 365.976C247.419 366.2 247.088 366.536 246.832 366.984C246.587 367.421 246.464 367.944 246.464 368.552C246.464 369.16 246.587 369.693 246.832 370.152C247.088 370.611 247.419 370.963 247.824 371.208C248.24 371.443 248.677 371.56 249.136 371.56C249.605 371.56 250.043 371.443 250.448 371.208C250.853 370.973 251.179 370.632 251.424 370.184C251.68 369.725 251.808 369.192 251.808 368.584ZM258.044 370.808L256.108 375.224H254.924L256.06 370.808H258.044ZM265.618 365.48C265.927 365.075 266.348 364.733 266.882 364.456C267.415 364.179 268.018 364.04 268.69 364.04C269.458 364.04 270.156 364.232 270.786 364.616C271.426 364.989 271.927 365.517 272.29 366.2C272.652 366.883 272.834 367.667 272.834 368.552C272.834 369.437 272.652 370.232 272.29 370.936C271.927 371.629 271.426 372.173 270.786 372.568C270.156 372.952 269.458 373.144 268.69 373.144C268.018 373.144 267.42 373.011 266.898 372.744C266.375 372.467 265.948 372.125 265.618 371.72V377.192H263.794V364.184H265.618V365.48ZM270.978 368.552C270.978 367.944 270.85 367.421 270.594 366.984C270.348 366.536 270.018 366.2 269.602 365.976C269.196 365.741 268.759 365.624 268.29 365.624C267.831 365.624 267.394 365.741 266.978 365.976C266.572 366.211 266.242 366.552 265.986 367C265.74 367.448 265.618 367.976 265.618 368.584C265.618 369.192 265.74 369.725 265.986 370.184C266.242 370.632 266.572 370.973 266.978 371.208C267.394 371.443 267.831 371.56 268.29 371.56C268.759 371.56 269.196 371.443 269.602 371.208C270.018 370.963 270.348 370.611 270.594 370.152C270.85 369.693 270.978 369.16 270.978 368.552ZM275.566 363.016C275.235 363.016 274.958 362.904 274.734 362.68C274.51 362.456 274.398 362.179 274.398 361.848C274.398 361.517 274.51 361.24 274.734 361.016C274.958 360.792 275.235 360.68 275.566 360.68C275.886 360.68 276.158 360.792 276.382 361.016C276.606 361.24 276.718 361.517 276.718 361.848C276.718 362.179 276.606 362.456 276.382 362.68C276.158 362.904 275.886 363.016 275.566 363.016ZM276.462 364.184V373H274.638V364.184H276.462ZM280.68 361.16V373H278.856V361.16H280.68ZM284.003 363.016C283.672 363.016 283.395 362.904 283.171 362.68C282.947 362.456 282.835 362.179 282.835 361.848C282.835 361.517 282.947 361.24 283.171 361.016C283.395 360.792 283.672 360.68 284.003 360.68C284.323 360.68 284.595 360.792 284.819 361.016C285.043 361.24 285.155 361.517 285.155 361.848C285.155 362.179 285.043 362.456 284.819 362.68C284.595 362.904 284.323 363.016 284.003 363.016ZM284.899 364.184V373H283.075V364.184H284.899ZM291.854 364.04C292.526 364.04 293.123 364.184 293.646 364.472C294.179 364.76 294.595 365.187 294.894 365.752C295.203 366.317 295.358 367 295.358 367.8V373H293.55V368.072C293.55 367.283 293.352 366.68 292.958 366.264C292.563 365.837 292.024 365.624 291.342 365.624C290.659 365.624 290.115 365.837 289.71 366.264C289.315 366.68 289.118 367.283 289.118 368.072V373H287.294V361.16H289.118V365.208C289.427 364.835 289.816 364.547 290.286 364.344C290.766 364.141 291.288 364.04 291.854 364.04ZM301.233 368.552C301.233 367.667 301.414 366.883 301.777 366.2C302.15 365.517 302.651 364.989 303.281 364.616C303.921 364.232 304.63 364.04 305.409 364.04C305.985 364.04 306.55 364.168 307.105 364.424C307.67 364.669 308.118 365 308.449 365.416V361.16H310.289V373H308.449V371.672C308.15 372.099 307.734 372.451 307.201 372.728C306.678 373.005 306.075 373.144 305.393 373.144C304.625 373.144 303.921 372.952 303.281 372.568C302.651 372.173 302.15 371.629 301.777 370.936C301.414 370.232 301.233 369.437 301.233 368.552ZM308.449 368.584C308.449 367.976 308.321 367.448 308.065 367C307.819 366.552 307.494 366.211 307.089 365.976C306.683 365.741 306.246 365.624 305.777 365.624C305.307 365.624 304.87 365.741 304.465 365.976C304.059 366.2 303.729 366.536 303.473 366.984C303.227 367.421 303.105 367.944 303.105 368.552C303.105 369.16 303.227 369.693 303.473 370.152C303.729 370.611 304.059 370.963 304.465 371.208C304.881 371.443 305.318 371.56 305.777 371.56C306.246 371.56 306.683 371.443 307.089 371.208C307.494 370.973 307.819 370.632 308.065 370.184C308.321 369.725 308.449 369.192 308.449 368.584ZM314.508 365.464C314.775 365.016 315.127 364.669 315.564 364.424C316.012 364.168 316.54 364.04 317.148 364.04V365.928H316.684C315.97 365.928 315.426 366.109 315.052 366.472C314.69 366.835 314.508 367.464 314.508 368.36V373H312.684V364.184H314.508V365.464ZM322.649 373.144C321.817 373.144 321.065 372.957 320.393 372.584C319.721 372.2 319.193 371.667 318.809 370.984C318.425 370.291 318.233 369.491 318.233 368.584C318.233 367.688 318.43 366.893 318.825 366.2C319.22 365.507 319.758 364.973 320.441 364.6C321.124 364.227 321.886 364.04 322.729 364.04C323.572 364.04 324.334 364.227 325.017 364.6C325.7 364.973 326.238 365.507 326.633 366.2C327.028 366.893 327.225 367.688 327.225 368.584C327.225 369.48 327.022 370.275 326.617 370.968C326.212 371.661 325.657 372.2 324.953 372.584C324.26 372.957 323.492 373.144 322.649 373.144ZM322.649 371.56C323.118 371.56 323.556 371.448 323.961 371.224C324.377 371 324.713 370.664 324.969 370.216C325.225 369.768 325.353 369.224 325.353 368.584C325.353 367.944 325.23 367.405 324.985 366.968C324.74 366.52 324.414 366.184 324.009 365.96C323.604 365.736 323.166 365.624 322.697 365.624C322.228 365.624 321.79 365.736 321.385 365.96C320.99 366.184 320.676 366.52 320.441 366.968C320.206 367.405 320.089 367.944 320.089 368.584C320.089 369.533 320.329 370.269 320.809 370.792C321.3 371.304 321.913 371.56 322.649 371.56ZM330.852 365.48C331.161 365.075 331.583 364.733 332.116 364.456C332.649 364.179 333.252 364.04 333.924 364.04C334.692 364.04 335.391 364.232 336.02 364.616C336.66 364.989 337.161 365.517 337.524 366.2C337.887 366.883 338.068 367.667 338.068 368.552C338.068 369.437 337.887 370.232 337.524 370.936C337.161 371.629 336.66 372.173 336.02 372.568C335.391 372.952 334.692 373.144 333.924 373.144C333.252 373.144 332.655 373.011 332.132 372.744C331.609 372.467 331.183 372.125 330.852 371.72V377.192H329.028V364.184H330.852V365.48ZM336.212 368.552C336.212 367.944 336.084 367.421 335.828 366.984C335.583 366.536 335.252 366.2 334.836 365.976C334.431 365.741 333.993 365.624 333.524 365.624C333.065 365.624 332.628 365.741 332.212 365.976C331.807 366.211 331.476 366.552 331.22 367C330.975 367.448 330.852 367.976 330.852 368.584C330.852 369.192 330.975 369.725 331.22 370.184C331.476 370.632 331.807 370.973 332.212 371.208C332.628 371.443 333.065 371.56 333.524 371.56C333.993 371.56 334.431 371.443 334.836 371.208C335.252 370.963 335.583 370.611 335.828 370.152C336.084 369.693 336.212 369.16 336.212 368.552ZM339.264 368.552C339.264 367.667 339.445 366.883 339.808 366.2C340.181 365.517 340.683 364.989 341.312 364.616C341.952 364.232 342.661 364.04 343.44 364.04C344.016 364.04 344.581 364.168 345.136 364.424C345.701 364.669 346.149 365 346.48 365.416V361.16H348.32V373H346.48V371.672C346.181 372.099 345.765 372.451 345.232 372.728C344.709 373.005 344.107 373.144 343.424 373.144C342.656 373.144 341.952 372.952 341.312 372.568C340.683 372.173 340.181 371.629 339.808 370.936C339.445 370.232 339.264 369.437 339.264 368.552ZM346.48 368.584C346.48 367.976 346.352 367.448 346.096 367C345.851 366.552 345.525 366.211 345.12 365.976C344.715 365.741 344.277 365.624 343.808 365.624C343.339 365.624 342.901 365.741 342.496 365.976C342.091 366.2 341.76 366.536 341.504 366.984C341.259 367.421 341.136 367.944 341.136 368.552C341.136 369.16 341.259 369.693 341.504 370.152C341.76 370.611 342.091 370.963 342.496 371.208C342.912 371.443 343.349 371.56 343.808 371.56C344.277 371.56 344.715 371.443 345.12 371.208C345.525 370.973 345.851 370.632 346.096 370.184C346.352 369.725 346.48 369.192 346.48 368.584ZM354.54 373.144C353.708 373.144 352.956 372.957 352.284 372.584C351.612 372.2 351.084 371.667 350.7 370.984C350.316 370.291 350.124 369.491 350.124 368.584C350.124 367.688 350.321 366.893 350.716 366.2C351.11 365.507 351.649 364.973 352.332 364.6C353.014 364.227 353.777 364.04 354.62 364.04C355.462 364.04 356.225 364.227 356.908 364.6C357.59 364.973 358.129 365.507 358.524 366.2C358.918 366.893 359.116 367.688 359.116 368.584C359.116 369.48 358.913 370.275 358.508 370.968C358.102 371.661 357.548 372.2 356.844 372.584C356.15 372.957 355.382 373.144 354.54 373.144ZM354.54 371.56C355.009 371.56 355.446 371.448 355.852 371.224C356.268 371 356.604 370.664 356.86 370.216C357.116 369.768 357.244 369.224 357.244 368.584C357.244 367.944 357.121 367.405 356.876 366.968C356.63 366.52 356.305 366.184 355.9 365.96C355.494 365.736 355.057 365.624 354.588 365.624C354.118 365.624 353.681 365.736 353.276 365.96C352.881 366.184 352.566 366.52 352.332 366.968C352.097 367.405 351.98 367.944 351.98 368.584C351.98 369.533 352.22 370.269 352.7 370.792C353.19 371.304 353.804 371.56 354.54 371.56ZM372.759 364.184L370.023 373H368.103L366.327 366.488L364.551 373H362.631L359.879 364.184H361.735L363.575 371.272L365.447 364.184H367.351L369.143 371.24L370.967 364.184H372.759ZM378.57 364.04C379.263 364.04 379.882 364.184 380.426 364.472C380.981 364.76 381.413 365.187 381.722 365.752C382.031 366.317 382.186 367 382.186 367.8V373H380.378V368.072C380.378 367.283 380.181 366.68 379.786 366.264C379.391 365.837 378.853 365.624 378.17 365.624C377.487 365.624 376.943 365.837 376.538 366.264C376.143 366.68 375.946 367.283 375.946 368.072V373H374.122V364.184H375.946V365.192C376.245 364.829 376.623 364.547 377.082 364.344C377.551 364.141 378.047 364.04 378.57 364.04ZM388.061 368.552C388.061 367.667 388.242 366.883 388.605 366.2C388.978 365.517 389.479 364.989 390.109 364.616C390.749 364.232 391.458 364.04 392.237 364.04C392.813 364.04 393.378 364.168 393.933 364.424C394.498 364.669 394.946 365 395.277 365.416V361.16H397.117V373H395.277V371.672C394.978 372.099 394.562 372.451 394.029 372.728C393.506 373.005 392.903 373.144 392.221 373.144C391.453 373.144 390.749 372.952 390.109 372.568C389.479 372.173 388.978 371.629 388.605 370.936C388.242 370.232 388.061 369.437 388.061 368.552ZM395.277 368.584C395.277 367.976 395.149 367.448 394.893 367C394.647 366.552 394.322 366.211 393.917 365.976C393.511 365.741 393.074 365.624 392.605 365.624C392.135 365.624 391.698 365.741 391.293 365.976C390.887 366.2 390.557 366.536 390.301 366.984C390.055 367.421 389.933 367.944 389.933 368.552C389.933 369.16 390.055 369.693 390.301 370.152C390.557 370.611 390.887 370.963 391.293 371.208C391.709 371.443 392.146 371.56 392.605 371.56C393.074 371.56 393.511 371.443 393.917 371.208C394.322 370.973 394.647 370.632 394.893 370.184C395.149 369.725 395.277 369.192 395.277 368.584ZM400.441 363.016C400.11 363.016 399.833 362.904 399.609 362.68C399.385 362.456 399.273 362.179 399.273 361.848C399.273 361.517 399.385 361.24 399.609 361.016C399.833 360.792 400.11 360.68 400.441 360.68C400.761 360.68 401.033 360.792 401.257 361.016C401.481 361.24 401.593 361.517 401.593 361.848C401.593 362.179 401.481 362.456 401.257 362.68C401.033 362.904 400.761 363.016 400.441 363.016ZM401.337 364.184V373H399.513V364.184H401.337ZM403.123 368.552C403.123 367.667 403.305 366.883 403.667 366.2C404.041 365.517 404.542 364.989 405.171 364.616C405.811 364.232 406.515 364.04 407.283 364.04C407.977 364.04 408.579 364.179 409.091 364.456C409.614 364.723 410.03 365.059 410.339 365.464V364.184H412.179V373H410.339V371.688C410.03 372.104 409.609 372.451 409.075 372.728C408.542 373.005 407.934 373.144 407.251 373.144C406.494 373.144 405.801 372.952 405.171 372.568C404.542 372.173 404.041 371.629 403.667 370.936C403.305 370.232 403.123 369.437 403.123 368.552ZM410.339 368.584C410.339 367.976 410.211 367.448 409.955 367C409.71 366.552 409.385 366.211 408.979 365.976C408.574 365.741 408.137 365.624 407.667 365.624C407.198 365.624 406.761 365.741 406.355 365.976C405.95 366.2 405.619 366.536 405.363 366.984C405.118 367.421 404.995 367.944 404.995 368.552C404.995 369.16 405.118 369.693 405.363 370.152C405.619 370.611 405.95 370.963 406.355 371.208C406.771 371.443 407.209 371.56 407.667 371.56C408.137 371.56 408.574 371.443 408.979 371.208C409.385 370.973 409.71 370.632 409.955 370.184C410.211 369.725 410.339 369.192 410.339 368.584ZM416.703 365.672V370.552C416.703 370.883 416.778 371.123 416.927 371.272C417.087 371.411 417.354 371.48 417.727 371.48H418.847V373H417.407C416.586 373 415.956 372.808 415.519 372.424C415.082 372.04 414.863 371.416 414.863 370.552V365.672H413.823V364.184H414.863V361.992H416.703V364.184H418.847V365.672H416.703ZM419.92 368.552C419.92 367.667 420.101 366.883 420.464 366.2C420.837 365.517 421.339 364.989 421.968 364.616C422.608 364.232 423.312 364.04 424.08 364.04C424.773 364.04 425.376 364.179 425.888 364.456C426.411 364.723 426.827 365.059 427.136 365.464V364.184H428.976V373H427.136V371.688C426.827 372.104 426.405 372.451 425.872 372.728C425.339 373.005 424.731 373.144 424.048 373.144C423.291 373.144 422.597 372.952 421.968 372.568C421.339 372.173 420.837 371.629 420.464 370.936C420.101 370.232 419.92 369.437 419.92 368.552ZM427.136 368.584C427.136 367.976 427.008 367.448 426.752 367C426.507 366.552 426.181 366.211 425.776 365.976C425.371 365.741 424.933 365.624 424.464 365.624C423.995 365.624 423.557 365.741 423.152 365.976C422.747 366.2 422.416 366.536 422.16 366.984C421.915 367.421 421.792 367.944 421.792 368.552C421.792 369.16 421.915 369.693 422.16 370.152C422.416 370.611 422.747 370.963 423.152 371.208C423.568 371.443 424.005 371.56 424.464 371.56C424.933 371.56 425.371 371.443 425.776 371.208C426.181 370.973 426.507 370.632 426.752 370.184C427.008 369.725 427.136 369.192 427.136 368.584ZM434.572 373.144C433.879 373.144 433.255 373.021 432.7 372.776C432.156 372.52 431.724 372.179 431.404 371.752C431.084 371.315 430.913 370.829 430.892 370.296H432.78C432.812 370.669 432.988 370.984 433.308 371.24C433.639 371.485 434.049 371.608 434.54 371.608C435.052 371.608 435.447 371.512 435.724 371.32C436.012 371.117 436.156 370.861 436.156 370.552C436.156 370.221 435.996 369.976 435.676 369.816C435.367 369.656 434.871 369.48 434.188 369.288C433.527 369.107 432.988 368.931 432.572 368.76C432.156 368.589 431.793 368.328 431.484 367.976C431.185 367.624 431.036 367.16 431.036 366.584C431.036 366.115 431.175 365.688 431.452 365.304C431.729 364.909 432.124 364.6 432.636 364.376C433.159 364.152 433.756 364.04 434.428 364.04C435.431 364.04 436.236 364.296 436.844 364.808C437.463 365.309 437.793 365.997 437.836 366.872H436.012C435.98 366.477 435.82 366.163 435.532 365.928C435.244 365.693 434.855 365.576 434.364 365.576C433.884 365.576 433.516 365.667 433.26 365.848C433.004 366.029 432.876 366.269 432.876 366.568C432.876 366.803 432.961 367 433.132 367.16C433.303 367.32 433.511 367.448 433.756 367.544C434.001 367.629 434.364 367.741 434.844 367.88C435.484 368.051 436.007 368.227 436.412 368.408C436.828 368.579 437.185 368.835 437.484 369.176C437.783 369.517 437.937 369.971 437.948 370.536C437.948 371.037 437.809 371.485 437.532 371.88C437.255 372.275 436.86 372.584 436.348 372.808C435.847 373.032 435.255 373.144 434.572 373.144ZM61.6021 389.48C61.9115 389.075 62.3328 388.733 62.8661 388.456C63.3995 388.179 64.0021 388.04 64.6741 388.04C65.4421 388.04 66.1408 388.232 66.7701 388.616C67.4101 388.989 67.9115 389.517 68.2741 390.2C68.6368 390.883 68.8181 391.667 68.8181 392.552C68.8181 393.437 68.6368 394.232 68.2741 394.936C67.9115 395.629 67.4101 396.173 66.7701 396.568C66.1408 396.952 65.4421 397.144 64.6741 397.144C64.0021 397.144 63.4048 397.011 62.8821 396.744C62.3595 396.467 61.9328 396.125 61.6021 395.72V401.192H59.7781V388.184H61.6021V389.48ZM66.9621 392.552C66.9621 391.944 66.8341 391.421 66.5781 390.984C66.3328 390.536 66.0021 390.2 65.5861 389.976C65.1808 389.741 64.7435 389.624 64.2741 389.624C63.8155 389.624 63.3781 389.741 62.9621 389.976C62.5568 390.211 62.2261 390.552 61.9701 391C61.7248 391.448 61.6021 391.976 61.6021 392.584C61.6021 393.192 61.7248 393.725 61.9701 394.184C62.2261 394.632 62.5568 394.973 62.9621 395.208C63.3781 395.443 63.8155 395.56 64.2741 395.56C64.7435 395.56 65.1808 395.443 65.5861 395.208C66.0021 394.963 66.3328 394.611 66.5781 394.152C66.8341 393.693 66.9621 393.16 66.9621 392.552ZM70.0139 392.552C70.0139 391.667 70.1952 390.883 70.5579 390.2C70.9312 389.517 71.4325 388.989 72.0619 388.616C72.7019 388.232 73.4059 388.04 74.1739 388.04C74.8672 388.04 75.4699 388.179 75.9819 388.456C76.5045 388.723 76.9205 389.059 77.2299 389.464V388.184H79.0699V397H77.2299V395.688C76.9205 396.104 76.4992 396.451 75.9659 396.728C75.4325 397.005 74.8245 397.144 74.1419 397.144C73.3845 397.144 72.6912 396.952 72.0619 396.568C71.4325 396.173 70.9312 395.629 70.5579 394.936C70.1952 394.232 70.0139 393.437 70.0139 392.552ZM77.2299 392.584C77.2299 391.976 77.1019 391.448 76.8459 391C76.6005 390.552 76.2752 390.211 75.8699 389.976C75.4645 389.741 75.0272 389.624 74.5579 389.624C74.0885 389.624 73.6512 389.741 73.2459 389.976C72.8405 390.2 72.5099 390.536 72.2539 390.984C72.0085 391.421 71.8859 391.944 71.8859 392.552C71.8859 393.16 72.0085 393.693 72.2539 394.152C72.5099 394.611 72.8405 394.963 73.2459 395.208C73.6619 395.443 74.0992 395.56 74.5579 395.56C75.0272 395.56 75.4645 395.443 75.8699 395.208C76.2752 394.973 76.6005 394.632 76.8459 394.184C77.1019 393.725 77.2299 393.192 77.2299 392.584ZM84.6656 397.144C83.9723 397.144 83.3483 397.021 82.7936 396.776C82.2496 396.52 81.8176 396.179 81.4976 395.752C81.1776 395.315 81.007 394.829 80.9856 394.296H82.8736C82.9056 394.669 83.0816 394.984 83.4016 395.24C83.7323 395.485 84.143 395.608 84.6336 395.608C85.1456 395.608 85.5403 395.512 85.8176 395.32C86.1056 395.117 86.2496 394.861 86.2496 394.552C86.2496 394.221 86.0896 393.976 85.7696 393.816C85.4603 393.656 84.9643 393.48 84.2816 393.288C83.6203 393.107 83.0816 392.931 82.6656 392.76C82.2496 392.589 81.887 392.328 81.5776 391.976C81.279 391.624 81.1296 391.16 81.1296 390.584C81.1296 390.115 81.2683 389.688 81.5456 389.304C81.823 388.909 82.2176 388.6 82.7296 388.376C83.2523 388.152 83.8496 388.04 84.5216 388.04C85.5243 388.04 86.3296 388.296 86.9376 388.808C87.5563 389.309 87.887 389.997 87.9296 390.872H86.1056C86.0736 390.477 85.9136 390.163 85.6256 389.928C85.3376 389.693 84.9483 389.576 84.4576 389.576C83.9776 389.576 83.6096 389.667 83.3536 389.848C83.0976 390.029 82.9696 390.269 82.9696 390.568C82.9696 390.803 83.055 391 83.2256 391.16C83.3963 391.32 83.6043 391.448 83.8496 391.544C84.095 391.629 84.4576 391.741 84.9376 391.88C85.5776 392.051 86.1003 392.227 86.5056 392.408C86.9216 392.579 87.279 392.835 87.5776 393.176C87.8763 393.517 88.031 393.971 88.0416 394.536C88.0416 395.037 87.903 395.485 87.6256 395.88C87.3483 396.275 86.9536 396.584 86.4416 396.808C85.9403 397.032 85.3483 397.144 84.6656 397.144ZM92.1405 389.672V394.552C92.1405 394.883 92.2152 395.123 92.3645 395.272C92.5245 395.411 92.7912 395.48 93.1645 395.48H94.2845V397H92.8445C92.0232 397 91.3938 396.808 90.9565 396.424C90.5192 396.04 90.3005 395.416 90.3005 394.552V389.672H89.2605V388.184H90.3005V385.992H92.1405V388.184H94.2845V389.672H92.1405ZM96.8936 387.016C96.563 387.016 96.2856 386.904 96.0616 386.68C95.8376 386.456 95.7256 386.179 95.7256 385.848C95.7256 385.517 95.8376 385.24 96.0616 385.016C96.2856 384.792 96.563 384.68 96.8936 384.68C97.2136 384.68 97.4856 384.792 97.7096 385.016C97.9336 385.24 98.0456 385.517 98.0456 385.848C98.0456 386.179 97.9336 386.456 97.7096 386.68C97.4856 386.904 97.2136 387.016 96.8936 387.016ZM97.7896 388.184V397H95.9656V388.184H97.7896ZM103.672 392.6L107.736 397H105.272L102.008 393.208V397H100.184V385.16H102.008V392.04L105.208 388.184H107.736L103.672 392.6ZM108.436 392.552C108.436 391.667 108.617 390.883 108.98 390.2C109.353 389.517 109.854 388.989 110.484 388.616C111.124 388.232 111.828 388.04 112.596 388.04C113.289 388.04 113.892 388.179 114.404 388.456C114.926 388.723 115.342 389.059 115.652 389.464V388.184H117.492V397H115.652V395.688C115.342 396.104 114.921 396.451 114.388 396.728C113.854 397.005 113.246 397.144 112.564 397.144C111.806 397.144 111.113 396.952 110.484 396.568C109.854 396.173 109.353 395.629 108.98 394.936C108.617 394.232 108.436 393.437 108.436 392.552ZM115.652 392.584C115.652 391.976 115.524 391.448 115.268 391C115.022 390.552 114.697 390.211 114.292 389.976C113.886 389.741 113.449 389.624 112.98 389.624C112.51 389.624 112.073 389.741 111.668 389.976C111.262 390.2 110.932 390.536 110.676 390.984C110.43 391.421 110.308 391.944 110.308 392.552C110.308 393.16 110.43 393.693 110.676 394.152C110.932 394.611 111.262 394.963 111.668 395.208C112.084 395.443 112.521 395.56 112.98 395.56C113.449 395.56 113.886 395.443 114.292 395.208C114.697 394.973 115.022 394.632 115.268 394.184C115.524 393.725 115.652 393.192 115.652 392.584ZM124.336 388.04C125.029 388.04 125.648 388.184 126.192 388.472C126.746 388.76 127.178 389.187 127.488 389.752C127.797 390.317 127.952 391 127.952 391.8V397H126.144V392.072C126.144 391.283 125.946 390.68 125.552 390.264C125.157 389.837 124.618 389.624 123.936 389.624C123.253 389.624 122.709 389.837 122.304 390.264C121.909 390.68 121.712 391.283 121.712 392.072V397H119.888V388.184H121.712V389.192C122.01 388.829 122.389 388.547 122.848 388.344C123.317 388.141 123.813 388.04 124.336 388.04ZM137.634 397.144C136.941 397.144 136.317 397.021 135.762 396.776C135.218 396.52 134.786 396.179 134.466 395.752C134.146 395.315 133.976 394.829 133.954 394.296H135.842C135.874 394.669 136.05 394.984 136.37 395.24C136.701 395.485 137.112 395.608 137.602 395.608C138.114 395.608 138.509 395.512 138.786 395.32C139.074 395.117 139.218 394.861 139.218 394.552C139.218 394.221 139.058 393.976 138.738 393.816C138.429 393.656 137.933 393.48 137.25 393.288C136.589 393.107 136.05 392.931 135.634 392.76C135.218 392.589 134.856 392.328 134.546 391.976C134.248 391.624 134.098 391.16 134.098 390.584C134.098 390.115 134.237 389.688 134.514 389.304C134.792 388.909 135.186 388.6 135.698 388.376C136.221 388.152 136.818 388.04 137.49 388.04C138.493 388.04 139.298 388.296 139.906 388.808C140.525 389.309 140.856 389.997 140.898 390.872H139.074C139.042 390.477 138.882 390.163 138.594 389.928C138.306 389.693 137.917 389.576 137.426 389.576C136.946 389.576 136.578 389.667 136.322 389.848C136.066 390.029 135.938 390.269 135.938 390.568C135.938 390.803 136.024 391 136.194 391.16C136.365 391.32 136.573 391.448 136.818 391.544C137.064 391.629 137.426 391.741 137.906 391.88C138.546 392.051 139.069 392.227 139.474 392.408C139.89 392.579 140.248 392.835 140.546 393.176C140.845 393.517 141 393.971 141.01 394.536C141.01 395.037 140.872 395.485 140.594 395.88C140.317 396.275 139.922 396.584 139.41 396.808C138.909 397.032 138.317 397.144 137.634 397.144ZM151.061 392.376C151.061 392.707 151.04 393.005 150.997 393.272H144.261C144.315 393.976 144.576 394.541 145.045 394.968C145.515 395.395 146.091 395.608 146.773 395.608C147.755 395.608 148.448 395.197 148.853 394.376H150.821C150.555 395.187 150.069 395.853 149.365 396.376C148.672 396.888 147.808 397.144 146.773 397.144C145.931 397.144 145.173 396.957 144.501 396.584C143.84 396.2 143.317 395.667 142.933 394.984C142.56 394.291 142.373 393.491 142.373 392.584C142.373 391.677 142.555 390.883 142.917 390.2C143.291 389.507 143.808 388.973 144.469 388.6C145.141 388.227 145.909 388.04 146.773 388.04C147.605 388.04 148.347 388.221 148.997 388.584C149.648 388.947 150.155 389.459 150.517 390.12C150.88 390.771 151.061 391.523 151.061 392.376ZM149.157 391.8C149.147 391.128 148.907 390.589 148.437 390.184C147.968 389.779 147.387 389.576 146.693 389.576C146.064 389.576 145.525 389.779 145.077 390.184C144.629 390.579 144.363 391.117 144.277 391.8H149.157ZM163.528 388.04C164.222 388.04 164.84 388.184 165.384 388.472C165.939 388.76 166.371 389.187 166.68 389.752C167 390.317 167.16 391 167.16 391.8V397H165.352V392.072C165.352 391.283 165.155 390.68 164.76 390.264C164.366 389.837 163.827 389.624 163.144 389.624C162.462 389.624 161.918 389.837 161.512 390.264C161.118 390.68 160.92 391.283 160.92 392.072V397H159.112V392.072C159.112 391.283 158.915 390.68 158.52 390.264C158.126 389.837 157.587 389.624 156.904 389.624C156.222 389.624 155.678 389.837 155.272 390.264C154.878 390.68 154.68 391.283 154.68 392.072V397H152.856V388.184H154.68V389.192C154.979 388.829 155.358 388.547 155.816 388.344C156.275 388.141 156.766 388.04 157.288 388.04C157.992 388.04 158.622 388.189 159.176 388.488C159.731 388.787 160.158 389.219 160.456 389.784C160.723 389.251 161.139 388.829 161.704 388.52C162.27 388.2 162.878 388.04 163.528 388.04ZM177.465 388.184V397H175.641V395.96C175.353 396.323 174.975 396.611 174.505 396.824C174.047 397.027 173.556 397.128 173.033 397.128C172.34 397.128 171.716 396.984 171.161 396.696C170.617 396.408 170.185 395.981 169.865 395.416C169.556 394.851 169.401 394.168 169.401 393.368V388.184H171.209V393.096C171.209 393.885 171.407 394.493 171.801 394.92C172.196 395.336 172.735 395.544 173.417 395.544C174.1 395.544 174.639 395.336 175.033 394.92C175.439 394.493 175.641 393.885 175.641 393.096V388.184H177.465ZM179.264 392.552C179.264 391.667 179.445 390.883 179.808 390.2C180.181 389.517 180.683 388.989 181.312 388.616C181.952 388.232 182.656 388.04 183.424 388.04C184.117 388.04 184.72 388.179 185.232 388.456C185.755 388.723 186.171 389.059 186.48 389.464V388.184H188.32V397H186.48V395.688C186.171 396.104 185.749 396.451 185.216 396.728C184.683 397.005 184.075 397.144 183.392 397.144C182.635 397.144 181.941 396.952 181.312 396.568C180.683 396.173 180.181 395.629 179.808 394.936C179.445 394.232 179.264 393.437 179.264 392.552ZM186.48 392.584C186.48 391.976 186.352 391.448 186.096 391C185.851 390.552 185.525 390.211 185.12 389.976C184.715 389.741 184.277 389.624 183.808 389.624C183.339 389.624 182.901 389.741 182.496 389.976C182.091 390.2 181.76 390.536 181.504 390.984C181.259 391.421 181.136 391.944 181.136 392.552C181.136 393.16 181.259 393.693 181.504 394.152C181.76 394.611 182.091 394.963 182.496 395.208C182.912 395.443 183.349 395.56 183.808 395.56C184.277 395.56 184.715 395.443 185.12 395.208C185.525 394.973 185.851 394.632 186.096 394.184C186.352 393.725 186.48 393.192 186.48 392.584ZM194.264 392.552C194.264 391.667 194.445 390.883 194.808 390.2C195.181 389.517 195.683 388.989 196.312 388.616C196.952 388.232 197.661 388.04 198.44 388.04C199.016 388.04 199.581 388.168 200.136 388.424C200.701 388.669 201.149 389 201.48 389.416V385.16H203.32V397H201.48V395.672C201.181 396.099 200.765 396.451 200.232 396.728C199.709 397.005 199.107 397.144 198.424 397.144C197.656 397.144 196.952 396.952 196.312 396.568C195.683 396.173 195.181 395.629 194.808 394.936C194.445 394.232 194.264 393.437 194.264 392.552ZM201.48 392.584C201.48 391.976 201.352 391.448 201.096 391C200.851 390.552 200.525 390.211 200.12 389.976C199.715 389.741 199.277 389.624 198.808 389.624C198.339 389.624 197.901 389.741 197.496 389.976C197.091 390.2 196.76 390.536 196.504 390.984C196.259 391.421 196.136 391.944 196.136 392.552C196.136 393.16 196.259 393.693 196.504 394.152C196.76 394.611 197.091 394.963 197.496 395.208C197.912 395.443 198.349 395.56 198.808 395.56C199.277 395.56 199.715 395.443 200.12 395.208C200.525 394.973 200.851 394.632 201.096 394.184C201.352 393.725 201.48 393.192 201.48 392.584ZM207.54 389.464C207.806 389.016 208.158 388.669 208.596 388.424C209.044 388.168 209.572 388.04 210.18 388.04V389.928H209.716C209.001 389.928 208.457 390.109 208.084 390.472C207.721 390.835 207.54 391.464 207.54 392.36V397H205.716V388.184H207.54V389.464ZM215.68 397.144C214.848 397.144 214.096 396.957 213.424 396.584C212.752 396.2 212.224 395.667 211.84 394.984C211.456 394.291 211.264 393.491 211.264 392.584C211.264 391.688 211.462 390.893 211.856 390.2C212.251 389.507 212.79 388.973 213.472 388.6C214.155 388.227 214.918 388.04 215.76 388.04C216.603 388.04 217.366 388.227 218.048 388.6C218.731 388.973 219.27 389.507 219.664 390.2C220.059 390.893 220.256 391.688 220.256 392.584C220.256 393.48 220.054 394.275 219.648 394.968C219.243 395.661 218.688 396.2 217.984 396.584C217.291 396.957 216.523 397.144 215.68 397.144ZM215.68 395.56C216.15 395.56 216.587 395.448 216.992 395.224C217.408 395 217.744 394.664 218 394.216C218.256 393.768 218.384 393.224 218.384 392.584C218.384 391.944 218.262 391.405 218.016 390.968C217.771 390.52 217.446 390.184 217.04 389.96C216.635 389.736 216.198 389.624 215.728 389.624C215.259 389.624 214.822 389.736 214.416 389.96C214.022 390.184 213.707 390.52 213.472 390.968C213.238 391.405 213.12 391.944 213.12 392.584C213.12 393.533 213.36 394.269 213.84 394.792C214.331 395.304 214.944 395.56 215.68 395.56ZM223.883 389.48C224.193 389.075 224.614 388.733 225.147 388.456C225.681 388.179 226.283 388.04 226.955 388.04C227.723 388.04 228.422 388.232 229.051 388.616C229.691 388.989 230.193 389.517 230.555 390.2C230.918 390.883 231.099 391.667 231.099 392.552C231.099 393.437 230.918 394.232 230.555 394.936C230.193 395.629 229.691 396.173 229.051 396.568C228.422 396.952 227.723 397.144 226.955 397.144C226.283 397.144 225.686 397.011 225.163 396.744C224.641 396.467 224.214 396.125 223.883 395.72V401.192H222.059V388.184H223.883V389.48ZM229.243 392.552C229.243 391.944 229.115 391.421 228.859 390.984C228.614 390.536 228.283 390.2 227.867 389.976C227.462 389.741 227.025 389.624 226.555 389.624C226.097 389.624 225.659 389.741 225.243 389.976C224.838 390.211 224.507 390.552 224.251 391C224.006 391.448 223.883 391.976 223.883 392.584C223.883 393.192 224.006 393.725 224.251 394.184C224.507 394.632 224.838 394.973 225.243 395.208C225.659 395.443 226.097 395.56 226.555 395.56C227.025 395.56 227.462 395.443 227.867 395.208C228.283 394.963 228.614 394.611 228.859 394.152C229.115 393.693 229.243 393.16 229.243 392.552ZM232.295 392.552C232.295 391.667 232.476 390.883 232.839 390.2C233.212 389.517 233.714 388.989 234.343 388.616C234.983 388.232 235.692 388.04 236.471 388.04C237.047 388.04 237.612 388.168 238.167 388.424C238.732 388.669 239.18 389 239.511 389.416V385.16H241.351V397H239.511V395.672C239.212 396.099 238.796 396.451 238.263 396.728C237.74 397.005 237.138 397.144 236.455 397.144C235.687 397.144 234.983 396.952 234.343 396.568C233.714 396.173 233.212 395.629 232.839 394.936C232.476 394.232 232.295 393.437 232.295 392.552ZM239.511 392.584C239.511 391.976 239.383 391.448 239.127 391C238.882 390.552 238.556 390.211 238.151 389.976C237.746 389.741 237.308 389.624 236.839 389.624C236.37 389.624 235.932 389.741 235.527 389.976C235.122 390.2 234.791 390.536 234.535 390.984C234.29 391.421 234.167 391.944 234.167 392.552C234.167 393.16 234.29 393.693 234.535 394.152C234.791 394.611 235.122 394.963 235.527 395.208C235.943 395.443 236.38 395.56 236.839 395.56C237.308 395.56 237.746 395.443 238.151 395.208C238.556 394.973 238.882 394.632 239.127 394.184C239.383 393.725 239.511 393.192 239.511 392.584ZM247.571 397.144C246.739 397.144 245.987 396.957 245.315 396.584C244.643 396.2 244.115 395.667 243.731 394.984C243.347 394.291 243.155 393.491 243.155 392.584C243.155 391.688 243.352 390.893 243.747 390.2C244.142 389.507 244.68 388.973 245.363 388.6C246.046 388.227 246.808 388.04 247.651 388.04C248.494 388.04 249.256 388.227 249.939 388.6C250.622 388.973 251.16 389.507 251.555 390.2C251.95 390.893 252.147 391.688 252.147 392.584C252.147 393.48 251.944 394.275 251.539 394.968C251.134 395.661 250.579 396.2 249.875 396.584C249.182 396.957 248.414 397.144 247.571 397.144ZM247.571 395.56C248.04 395.56 248.478 395.448 248.883 395.224C249.299 395 249.635 394.664 249.891 394.216C250.147 393.768 250.275 393.224 250.275 392.584C250.275 391.944 250.152 391.405 249.907 390.968C249.662 390.52 249.336 390.184 248.931 389.96C248.526 389.736 248.088 389.624 247.619 389.624C247.15 389.624 246.712 389.736 246.307 389.96C245.912 390.184 245.598 390.52 245.363 390.968C245.128 391.405 245.011 391.944 245.011 392.584C245.011 393.533 245.251 394.269 245.731 394.792C246.222 395.304 246.835 395.56 247.571 395.56ZM265.79 388.184L263.054 397H261.134L259.358 390.488L257.582 397H255.662L252.91 388.184H254.766L256.606 395.272L258.478 388.184H260.382L262.174 395.24L263.998 388.184H265.79ZM271.601 388.04C272.294 388.04 272.913 388.184 273.457 388.472C274.012 388.76 274.444 389.187 274.753 389.752C275.062 390.317 275.217 391 275.217 391.8V397H273.409V392.072C273.409 391.283 273.212 390.68 272.817 390.264C272.422 389.837 271.884 389.624 271.201 389.624C270.518 389.624 269.974 389.837 269.569 390.264C269.174 390.68 268.977 391.283 268.977 392.072V397H267.153V388.184H268.977V389.192C269.276 388.829 269.654 388.547 270.113 388.344C270.582 388.141 271.078 388.04 271.601 388.04ZM283.828 389.672V394.552C283.828 394.883 283.903 395.123 284.052 395.272C284.212 395.411 284.479 395.48 284.852 395.48H285.972V397H284.532C283.711 397 283.081 396.808 282.644 396.424C282.207 396.04 281.988 395.416 281.988 394.552V389.672H280.948V388.184H281.988V385.992H283.828V388.184H285.972V389.672H283.828ZM288.581 387.016C288.25 387.016 287.973 386.904 287.749 386.68C287.525 386.456 287.413 386.179 287.413 385.848C287.413 385.517 287.525 385.24 287.749 385.016C287.973 384.792 288.25 384.68 288.581 384.68C288.901 384.68 289.173 384.792 289.397 385.016C289.621 385.24 289.733 385.517 289.733 385.848C289.733 386.179 289.621 386.456 289.397 386.68C289.173 386.904 288.901 387.016 288.581 387.016ZM289.477 388.184V397H287.653V388.184H289.477ZM291.264 392.552C291.264 391.667 291.445 390.883 291.808 390.2C292.181 389.517 292.683 388.989 293.312 388.616C293.952 388.232 294.661 388.04 295.44 388.04C296.016 388.04 296.581 388.168 297.136 388.424C297.701 388.669 298.149 389 298.48 389.416V385.16H300.32V397H298.48V395.672C298.181 396.099 297.765 396.451 297.232 396.728C296.709 397.005 296.107 397.144 295.424 397.144C294.656 397.144 293.952 396.952 293.312 396.568C292.683 396.173 292.181 395.629 291.808 394.936C291.445 394.232 291.264 393.437 291.264 392.552ZM298.48 392.584C298.48 391.976 298.352 391.448 298.096 391C297.851 390.552 297.525 390.211 297.12 389.976C296.715 389.741 296.277 389.624 295.808 389.624C295.339 389.624 294.901 389.741 294.496 389.976C294.091 390.2 293.76 390.536 293.504 390.984C293.259 391.421 293.136 391.944 293.136 392.552C293.136 393.16 293.259 393.693 293.504 394.152C293.76 394.611 294.091 394.963 294.496 395.208C294.912 395.443 295.349 395.56 295.808 395.56C296.277 395.56 296.715 395.443 297.12 395.208C297.525 394.973 297.851 394.632 298.096 394.184C298.352 393.725 298.48 393.192 298.48 392.584ZM302.108 392.552C302.108 391.667 302.289 390.883 302.652 390.2C303.025 389.517 303.526 388.989 304.156 388.616C304.796 388.232 305.5 388.04 306.268 388.04C306.961 388.04 307.564 388.179 308.076 388.456C308.598 388.723 309.014 389.059 309.324 389.464V388.184H311.164V397H309.324V395.688C309.014 396.104 308.593 396.451 308.06 396.728C307.526 397.005 306.918 397.144 306.236 397.144C305.478 397.144 304.785 396.952 304.156 396.568C303.526 396.173 303.025 395.629 302.652 394.936C302.289 394.232 302.108 393.437 302.108 392.552ZM309.324 392.584C309.324 391.976 309.196 391.448 308.94 391C308.694 390.552 308.369 390.211 307.964 389.976C307.558 389.741 307.121 389.624 306.652 389.624C306.182 389.624 305.745 389.741 305.34 389.976C304.934 390.2 304.604 390.536 304.348 390.984C304.102 391.421 303.98 391.944 303.98 392.552C303.98 393.16 304.102 393.693 304.348 394.152C304.604 394.611 304.934 394.963 305.34 395.208C305.756 395.443 306.193 395.56 306.652 395.56C307.121 395.56 307.558 395.443 307.964 395.208C308.369 394.973 308.694 394.632 308.94 394.184C309.196 393.725 309.324 393.192 309.324 392.584ZM317.047 392.6L321.111 397H318.647L315.383 393.208V397H313.559V385.16H315.383V392.04L318.583 388.184H321.111L317.047 392.6ZM330.063 392.6L334.127 397H331.663L328.399 393.208V397H326.575V385.16H328.399V392.04L331.599 388.184H334.127L330.063 392.6ZM339.258 397.144C338.426 397.144 337.674 396.957 337.002 396.584C336.33 396.2 335.802 395.667 335.418 394.984C335.034 394.291 334.842 393.491 334.842 392.584C334.842 391.688 335.04 390.893 335.434 390.2C335.829 389.507 336.368 388.973 337.05 388.6C337.733 388.227 338.496 388.04 339.338 388.04C340.181 388.04 340.944 388.227 341.626 388.6C342.309 388.973 342.848 389.507 343.242 390.2C343.637 390.893 343.834 391.688 343.834 392.584C343.834 393.48 343.632 394.275 343.226 394.968C342.821 395.661 342.266 396.2 341.562 396.584C340.869 396.957 340.101 397.144 339.258 397.144ZM339.258 395.56C339.728 395.56 340.165 395.448 340.57 395.224C340.986 395 341.322 394.664 341.578 394.216C341.834 393.768 341.962 393.224 341.962 392.584C341.962 391.944 341.84 391.405 341.594 390.968C341.349 390.52 341.024 390.184 340.618 389.96C340.213 389.736 339.776 389.624 339.306 389.624C338.837 389.624 338.4 389.736 337.994 389.96C337.6 390.184 337.285 390.52 337.05 390.968C336.816 391.405 336.698 391.944 336.698 392.584C336.698 393.533 336.938 394.269 337.418 394.792C337.909 395.304 338.522 395.56 339.258 395.56ZM348.838 397.144C348.144 397.144 347.52 397.021 346.966 396.776C346.422 396.52 345.99 396.179 345.67 395.752C345.35 395.315 345.179 394.829 345.158 394.296H347.046C347.078 394.669 347.254 394.984 347.574 395.24C347.904 395.485 348.315 395.608 348.806 395.608C349.318 395.608 349.712 395.512 349.99 395.32C350.278 395.117 350.422 394.861 350.422 394.552C350.422 394.221 350.262 393.976 349.942 393.816C349.632 393.656 349.136 393.48 348.454 393.288C347.792 393.107 347.254 392.931 346.838 392.76C346.422 392.589 346.059 392.328 345.75 391.976C345.451 391.624 345.302 391.16 345.302 390.584C345.302 390.115 345.44 389.688 345.718 389.304C345.995 388.909 346.39 388.6 346.902 388.376C347.424 388.152 348.022 388.04 348.694 388.04C349.696 388.04 350.502 388.296 351.11 388.808C351.728 389.309 352.059 389.997 352.102 390.872H350.278C350.246 390.477 350.086 390.163 349.798 389.928C349.51 389.693 349.12 389.576 348.63 389.576C348.15 389.576 347.782 389.667 347.526 389.848C347.27 390.029 347.142 390.269 347.142 390.568C347.142 390.803 347.227 391 347.398 391.16C347.568 391.32 347.776 391.448 348.022 391.544C348.267 391.629 348.63 391.741 349.11 391.88C349.75 392.051 350.272 392.227 350.678 392.408C351.094 392.579 351.451 392.835 351.75 393.176C352.048 393.517 352.203 393.971 352.214 394.536C352.214 395.037 352.075 395.485 351.798 395.88C351.52 396.275 351.126 396.584 350.614 396.808C350.112 397.032 349.52 397.144 348.838 397.144ZM358.008 397.144C357.176 397.144 356.424 396.957 355.752 396.584C355.08 396.2 354.552 395.667 354.168 394.984C353.784 394.291 353.592 393.491 353.592 392.584C353.592 391.688 353.79 390.893 354.184 390.2C354.579 389.507 355.118 388.973 355.8 388.6C356.483 388.227 357.246 388.04 358.088 388.04C358.931 388.04 359.694 388.227 360.376 388.6C361.059 388.973 361.598 389.507 361.992 390.2C362.387 390.893 362.584 391.688 362.584 392.584C362.584 393.48 362.382 394.275 361.976 394.968C361.571 395.661 361.016 396.2 360.312 396.584C359.619 396.957 358.851 397.144 358.008 397.144ZM358.008 395.56C358.478 395.56 358.915 395.448 359.32 395.224C359.736 395 360.072 394.664 360.328 394.216C360.584 393.768 360.712 393.224 360.712 392.584C360.712 391.944 360.59 391.405 360.344 390.968C360.099 390.52 359.774 390.184 359.368 389.96C358.963 389.736 358.526 389.624 358.056 389.624C357.587 389.624 357.15 389.736 356.744 389.96C356.35 390.184 356.035 390.52 355.8 390.968C355.566 391.405 355.448 391.944 355.448 392.584C355.448 393.533 355.688 394.269 356.168 394.792C356.659 395.304 357.272 395.56 358.008 395.56ZM368.836 388.04C369.529 388.04 370.148 388.184 370.692 388.472C371.246 388.76 371.678 389.187 371.988 389.752C372.297 390.317 372.452 391 372.452 391.8V397H370.644V392.072C370.644 391.283 370.446 390.68 370.052 390.264C369.657 389.837 369.118 389.624 368.436 389.624C367.753 389.624 367.209 389.837 366.804 390.264C366.409 390.68 366.212 391.283 366.212 392.072V397H364.388V388.184H366.212V389.192C366.51 388.829 366.889 388.547 367.348 388.344C367.817 388.141 368.313 388.04 368.836 388.04ZM378.33 388.04C379.013 388.04 379.615 388.179 380.138 388.456C380.671 388.723 381.087 389.059 381.386 389.464V388.184H383.226V397.144C383.226 397.955 383.055 398.675 382.714 399.304C382.373 399.944 381.877 400.445 381.226 400.808C380.586 401.171 379.818 401.352 378.922 401.352C377.727 401.352 376.735 401.069 375.946 400.504C375.157 399.949 374.709 399.192 374.602 398.232H376.41C376.549 398.691 376.842 399.059 377.29 399.336C377.749 399.624 378.293 399.768 378.922 399.768C379.658 399.768 380.25 399.544 380.698 399.096C381.157 398.648 381.386 397.997 381.386 397.144V395.672C381.077 396.088 380.655 396.44 380.122 396.728C379.599 397.005 379.002 397.144 378.33 397.144C377.562 397.144 376.858 396.952 376.218 396.568C375.589 396.173 375.087 395.629 374.714 394.936C374.351 394.232 374.17 393.437 374.17 392.552C374.17 391.667 374.351 390.883 374.714 390.2C375.087 389.517 375.589 388.989 376.218 388.616C376.858 388.232 377.562 388.04 378.33 388.04ZM381.386 392.584C381.386 391.976 381.258 391.448 381.002 391C380.757 390.552 380.431 390.211 380.026 389.976C379.621 389.741 379.183 389.624 378.714 389.624C378.245 389.624 377.807 389.741 377.402 389.976C376.997 390.2 376.666 390.536 376.41 390.984C376.165 391.421 376.042 391.944 376.042 392.552C376.042 393.16 376.165 393.693 376.41 394.152C376.666 394.611 376.997 394.963 377.402 395.208C377.818 395.443 378.255 395.56 378.714 395.56C379.183 395.56 379.621 395.443 380.026 395.208C380.431 394.973 380.757 394.632 381.002 394.184C381.258 393.725 381.386 393.192 381.386 392.584Z" fill="#87B2FF"/>
</svg>
